<?xml version="1.0" encoding="UTF-8" standalone="no"?>
<!-- Created with Inkscape (http://www.inkscape.org/) -->

<svg
   xmlns:dc="http://purl.org/dc/elements/1.1/"
   xmlns:cc="http://creativecommons.org/ns#"
   xmlns:rdf="http://www.w3.org/1999/02/22-rdf-syntax-ns#"
   xmlns:svg="http://www.w3.org/2000/svg"
   xmlns="http://www.w3.org/2000/svg"
   xmlns:sodipodi="http://sodipodi.sourceforge.net/DTD/sodipodi-0.dtd"
   xmlns:inkscape="http://www.inkscape.org/namespaces/inkscape"
   version="1.1"
   id="svg6221"
   width="580"
   height="512"
   viewBox="0 0 580 512"
   sodipodi:docname="交svg.svg"
   inkscape:version="0.92.4 (5da689c313, 2019-01-14)">
  <metadata
     id="metadata6227">
    <rdf:RDF>
      <cc:Work
         rdf:about="">
        <dc:format>image/svg+xml</dc:format>
        <dc:type
           rdf:resource="http://purl.org/dc/dcmitype/StillImage" />
        <dc:title></dc:title>
      </cc:Work>
    </rdf:RDF>
  </metadata>
  <defs
     id="defs6225" />
  <sodipodi:namedview
     pagecolor="#ffffff"
     bordercolor="#666666"
     borderopacity="1"
     objecttolerance="10"
     gridtolerance="10"
     guidetolerance="10"
     inkscape:pageopacity="0"
     inkscape:pageshadow="2"
     inkscape:window-width="1920"
     inkscape:window-height="1017"
     id="namedview6223"
     showgrid="false"
     inkscape:zoom="1.0017346"
     inkscape:cx="332.93463"
     inkscape:cy="406.88484"
     inkscape:window-x="-8"
     inkscape:window-y="-8"
     inkscape:window-maximized="1"
     inkscape:current-layer="svg6221" />
  <path
     style="fill:#000000;fill-opacity:1;stroke:#000000;stroke-width:1px;stroke-linecap:butt;stroke-linejoin:miter;stroke-opacity:1"
     d="m 189.67099,42.813849 17.96883,7.986152 18.9671,28.949784 31.94459,8.984415 c 0,0 17.96883,11.97922 14.97403,15.97229 -2.99481,3.99308 -13.97576,6.98788 -13.97576,6.98788 l -55.90303,5.98961 -71.87533,19.96537 -16.97056,0.99827 -25.954973,-6.98788 -7.986147,-5.98961 c 0,0 -30.946321,0 -22.960173,6.98788 7.986147,6.98788 45.920343,24.95671 45.920343,24.95671 l 11.97922,7.98615 108.81126,-38.93247 19.96536,-3.99307 c 0,0 10.98096,18.9671 -2.9948,43.9238 -13.97576,24.95671 -13.97576,24.95671 -13.97576,24.95671 l -20.96364,-2.9948 v -10.98095 c 0,0 -27.95151,-10.98096 -22.96017,9.98268 4.99134,20.96364 8.98442,29.94805 8.98442,29.94805 l 10.98095,2.99481 -71.87533,56.9013 -61.892633,44.92208 c 0,0 11.979221,5.98961 15.972295,2.9948 3.993073,-2.9948 55.903028,-36.93593 55.903028,-36.93593 l 30.94632,-21.9619 20.96363,-25.95498 c 0,0 21.96191,-25.95498 35.93767,-15.9723 13.97575,9.98269 42.92554,32.94286 45.92034,41.92728 2.99481,8.98441 9.98269,4.99134 9.98269,4.99134 l -32.94286,41.92727 -43.92381,34.93939 -55.90303,35.93767 -44.92208,17.96883 -19.965361,1.99653 -16.970563,-6.98787 5.98961,17.96883 35.937654,5.98961 35.93767,-18.9671 43.92381,-23.95844 39.93073,-25.95498 40.92901,-41.92727 c 0,0 8.98441,-44.92208 43.92381,-8.98442 34.93939,35.93766 80.85974,66.88398 80.85974,66.88398 l 32.94285,15.9723 116.79741,-11.97922 -64.88745,-22.96018 -76.86667,-28.94978 -83.85454,-51.90996 -17.96883,-11.97922 18.9671,-35.93766 2.9948,-30.94632 -20.96363,-22.96018 c 0,0 7.98614,45.92035 -8.98442,83.85455 -16.97056,37.9342 0.99827,-1.99654 0.99827,-1.99654 l -24.95671,-17.96883 -21.96191,-19.96537 c 0,0 -19.96536,-16.97056 0,-30.94632 19.96537,-13.97575 22.96018,-32.94285 22.96018,-32.94285 l -12.97749,-17.96883 -6.98788,-6.98788 71.87532,-15.9723 58.89784,-9.982681 64.88744,20.963631 c 0,0 20.96364,-8.98441 -2.9948,-24.956705 -23.95844,-15.972294 -37.9342,-20.963636 -37.9342,-20.963636 0,0 -6.98788,-3.993073 -19.96537,4.991342 -12.97749,8.984416 -96.83203,25.954979 -96.83203,25.954979 0,0 -8.98442,8.98441 -4.99134,-4.991343 3.99307,-13.975757 7.98614,-18.967099 7.98614,-18.967099 l -4.99134,-11.979221 -10.98095,-6.987879 -22.96017,-7.986147 -4.99135,-19.965372 z"
     id="path6231"
     inkscape:connector-curvature="0" />
  <path
     style="fill:#000000;fill-opacity:1;stroke:#000000;stroke-width:1px;stroke-linecap:butt;stroke-linejoin:miter;stroke-opacity:1"
     d="m 310.46147,135.65281 21.9619,20.96364 58.89784,25.95498 c 0,0 33.94112,3.99307 5.98961,-18.9671 -27.95152,-22.96017 -37.9342,-25.95498 -37.9342,-25.95498 z"
     id="path6233"
     inkscape:connector-curvature="0" />
</svg>
