<?xml version="1.0" encoding="UTF-8" standalone="no"?>
<!-- Created with Inkscape (http://www.inkscape.org/) -->

<svg
   xmlns:dc="http://purl.org/dc/elements/1.1/"
   xmlns:cc="http://creativecommons.org/ns#"
   xmlns:rdf="http://www.w3.org/1999/02/22-rdf-syntax-ns#"
   xmlns:svg="http://www.w3.org/2000/svg"
   xmlns="http://www.w3.org/2000/svg"
   xmlns:sodipodi="http://sodipodi.sourceforge.net/DTD/sodipodi-0.dtd"
   xmlns:inkscape="http://www.inkscape.org/namespaces/inkscape"
   version="1.1"
   id="svg7343"
   width="550"
   height="512"
   viewBox="0 0 550 512"
   sodipodi:docname="投.svg"
   inkscape:version="0.92.4 (5da689c313, 2019-01-14)">
  <metadata
     id="metadata7349">
    <rdf:RDF>
      <cc:Work
         rdf:about="">
        <dc:format>image/svg+xml</dc:format>
        <dc:type
           rdf:resource="http://purl.org/dc/dcmitype/StillImage" />
        <dc:title></dc:title>
      </cc:Work>
    </rdf:RDF>
  </metadata>
  <defs
     id="defs7347" />
  <sodipodi:namedview
     pagecolor="#ffffff"
     bordercolor="#666666"
     borderopacity="1"
     objecttolerance="10"
     gridtolerance="10"
     guidetolerance="10"
     inkscape:pageopacity="0"
     inkscape:pageshadow="2"
     inkscape:window-width="1920"
     inkscape:window-height="1017"
     id="namedview7345"
     showgrid="false"
     inkscape:zoom="1.0017346"
     inkscape:cx="155.7835"
     inkscape:cy="374.0328"
     inkscape:window-x="-8"
     inkscape:window-y="-8"
     inkscape:window-maximized="1"
     inkscape:current-layer="svg7343" />
  <path
     style="fill:#000000;fill-opacity:1;stroke:#000000;stroke-width:1px;stroke-linecap:butt;stroke-linejoin:miter;stroke-opacity:1"
     d="m 128.77662,330.31516 c -4.99135,9.98268 -56.901295,36.93593 -57.899563,40.929 -0.998269,3.99307 -2.994805,15.97229 -2.994805,15.97229 l 49.913408,16.97057 8.98442,-66.88398 13.97576,-27.95152 48.91515,-41.92727 107.81299,93.83723 c 0,0 -15.9723,23.95844 -20.96364,26.95324 -4.99134,2.99481 -53.90649,22.96018 -53.90649,22.96018 l -46.91862,7.98614 -37.9342,-3.99307 -3.99307,-68.88052 4.99134,79.86147 c 0,0 42.92554,14.97403 68.88052,14.97403 25.95498,0 83.85455,-42.92554 83.85455,-42.92554 l 22.96017,-22.96018 97.8303,99.82684 120.79048,-14.97402 7.98615,-2.99481 0.99826,-9.98268 -97.8303,-34.9394 -98.82857,-60.89437 -15.9723,-8.98441 30.94633,-59.89611 c 0,0 9.98268,-19.96536 -2.99481,-33.94112 -12.97749,-13.97576 -12.97749,-13.97576 -12.97749,-13.97576 l -17.96883,76.86667 c 0,0 -6.98788,23.95844 -15.97229,11.97922 -8.98442,-11.97922 -47.91689,-30.94632 -47.91689,-30.94632 l -11.97922,-7.98615 76.86667,-49.91342 39.93073,-13.97576 69.87879,-15.97229 47.91688,6.98788 c 0,0 48.91516,0.99826 8.98442,-18.9671 -39.93074,-19.96537 -39.93074,-24.95671 -40.929,-20.96364 -0.99827,3.99307 -34.9394,19.96537 -34.9394,19.96537 0,0 -99.82684,26.95325 -94.8355,24.95671 4.99135,-1.99654 24.95671,-40.92901 24.95671,-40.92901 l 42.92555,-17.96883 c 0,0 27.95151,-4.99134 0,-19.96537 -27.95152,-14.97402 -0.99827,-23.95844 -0.99827,-23.95844 l 2.9948,26.95325 22.96018,-56.901302 8.98441,-11.979221 c 0,0 8.98442,-16.970562 -17.96883,-21.961904 -26.95325,-4.991342 -20.96364,-15.972295 -27.95152,-4.991342 -6.98787,10.980952 -43.9238,21.961904 -43.9238,21.961904 h -8.98442 c 0,0 -6.98788,-19.965368 -11.97922,-9.982684 -4.99134,9.982684 -1.99654,16.970563 0,21.961905 1.99654,4.991342 17.96883,20.963636 17.96883,20.963636 0,0 41.92727,-21.961904 42.92554,-15.972294 0.99827,5.98961 -7.98615,54.904762 -7.98615,54.904762 l -27.95151,6.98788 -16.97056,-12.97749 c 0,0 4.99134,-9.98268 -14.97403,-28.94978 C 287.50129,84.741126 286.50302,88.7342 286.50302,88.7342 l 9.98269,29.94806 4.99134,13.97575 -31.94459,43.92381 c 0,0 7.98615,1.99654 19.96537,-6.98788 11.97922,-8.98441 29.94805,-36.93593 29.94805,-36.93593 l -22.96017,92.83896 -81.85801,16.97057 34.93939,-63.88918 8.98442,-22.96017 -72.87359,87.84762 c 0,0 -47.91689,52.90822 -47.91689,38.93246 0,-13.97575 2.99481,-79.86147 6.98788,-80.85974 3.99307,-0.99827 37.9342,-19.96537 37.9342,-19.96537 0,0 44.92208,-20.96363 12.97749,-27.95151 -31.94459,-6.98788 -46.91862,6.98788 -44.92208,-6.98788 1.99654,-13.97576 4.99134,-50.911691 4.99134,-50.911691 0,0 30.94632,-37.934199 7.98615,-47.916883 -22.96017,-9.982684 -41.92727,-16.97056 -41.92727,-16.97056 l -22.960177,5.989607 c 0,0 32.942857,17.968832 36.935937,27.951516 3.99307,9.982683 3.99307,89.844161 3.99307,89.844161 L 38.932468,188.56104 H 21.961905 L 8.9844158,183.5697 c 0,0 -4.991342,22.96017 13.9757582,34.9394 18.967099,11.97922 25.954978,20.96363 25.954978,20.96363 l 36.935931,-5.98961 c 0,0 39.930727,-31.94459 39.930727,-25.95498 0,5.98961 3.99308,86.84935 3.99308,86.84935 L 73.871862,335.3065 c 0,0 -46.918615,33.94112 -7.986147,63.88918 38.932465,29.94805 24.95671,0.99826 41.927265,30.94632 16.97056,29.94805 31.94459,39.93073 31.94459,14.97402 0,-24.95671 -10.98095,-114.80086 -10.98095,-114.80086 z"
     id="path7900"
     inkscape:connector-curvature="0" />
</svg>
