<?xml version="1.0" encoding="UTF-8" standalone="no"?>
<!-- Created with Inkscape (http://www.inkscape.org/) -->

<svg
   xmlns:dc="http://purl.org/dc/elements/1.1/"
   xmlns:cc="http://creativecommons.org/ns#"
   xmlns:rdf="http://www.w3.org/1999/02/22-rdf-syntax-ns#"
   xmlns:svg="http://www.w3.org/2000/svg"
   xmlns="http://www.w3.org/2000/svg"
   xmlns:sodipodi="http://sodipodi.sourceforge.net/DTD/sodipodi-0.dtd"
   xmlns:inkscape="http://www.inkscape.org/namespaces/inkscape"
   width="512mm"
   height="512mm"
   viewBox="0 0 512 512"
   version="1.1"
   id="svg8"
   inkscape:version="0.92.4 (5da689c313, 2019-01-14)"
   sodipodi:docname="氣.svg">
  <defs
     id="defs2" />
  <sodipodi:namedview
     id="base"
     pagecolor="#ffffff"
     bordercolor="#666666"
     borderopacity="1.0"
     inkscape:pageopacity="0.0"
     inkscape:pageshadow="2"
     inkscape:zoom="0.35"
     inkscape:cx="738.65219"
     inkscape:cy="995.373"
     inkscape:document-units="mm"
     inkscape:current-layer="layer1"
     showgrid="false"
     inkscape:window-width="1920"
     inkscape:window-height="1017"
     inkscape:window-x="-8"
     inkscape:window-y="-8"
     inkscape:window-maximized="1" />
  <metadata
     id="metadata5">
    <rdf:RDF>
      <cc:Work
         rdf:about="">
        <dc:format>image/svg+xml</dc:format>
        <dc:type
           rdf:resource="http://purl.org/dc/dcmitype/StillImage" />
        <dc:title />
      </cc:Work>
    </rdf:RDF>
  </metadata>
  <g
     inkscape:label="圖層 1"
     inkscape:groupmode="layer"
     id="layer1"
     transform="translate(0,215)">
    <path
       style="fill:#000000;stroke:#000000;stroke-width:0.26458332px;stroke-linecap:butt;stroke-linejoin:miter;stroke-opacity:1;fill-opacity:1"
       d="m 175.38095,-186.05356 11.33929,18.14286 c 0,0 -4.53572,11.33928 -4.53572,15.11905 0,3.77976 -11.33928,29.48214 -11.33928,29.48214 0,0 -10.58334,12.85119 -15.11905,15.875 -4.53572,3.02381 -12.85119,7.559522 -16.63095,9.827379 -3.77977,2.267858 -8.31548,3.779764 -8.31548,3.779764 l 15.875,3.77976 17.3869,-8.315475 12.09524,-13.607138 7.55953,-18.14286 7.55952,-13.60714 7.55952,-10.58334 c 0,0 8.31548,-6.04762 2.26786,-18.89881 -6.04762,-12.85119 -25.70238,-12.85119 -25.70238,-12.85119 z"
       id="path826"
       inkscape:connector-curvature="0" />
    <path
       style="fill:#000000;stroke:#000000;stroke-width:0.26458332px;stroke-linecap:butt;stroke-linejoin:miter;stroke-opacity:1;fill-opacity:1"
       d="m 210.91071,-142.96427 14.3631,2.26785 47.625,-18.14285 8.31546,-3.02381 c 0,0 44.60121,10.58333 11.3393,17.3869 -33.26191,6.80357 -48.38095,14.3631 -48.38095,14.3631 l -7.55953,-0.75595 -12.85119,-2.26786 z"
       id="path828"
       inkscape:connector-curvature="0" />
    <path
       style="fill:#000000;stroke:#000000;stroke-width:0.26458332px;stroke-linecap:butt;stroke-linejoin:miter;stroke-opacity:1;fill-opacity:1"
       d="m 262.31547,-121.04165 -18.89881,16.63095 -26.45833,18.898808 -34.77381,24.190476 -20.41071,11.339285 c 0,0 -6.04762,4.535715 -9.82738,4.535715 -3.77977,0 -6.04762,-4.535715 -10.58334,-5.291667 -4.53571,-0.755952 -9.82738,-10.583333 -9.82738,-10.583333 l 3.02381,-9.827382 4.53572,-4.535712 7.55952,3.023809 23.43452,-4.535715 34.77381,-18.142857 z"
       id="path830"
       inkscape:connector-curvature="0" />
    <path
       style="fill:#000000;stroke:#000000;stroke-width:0.26458332px;stroke-linecap:butt;stroke-linejoin:miter;stroke-opacity:1;fill-opacity:1"
       d="m 341.69048,-86.267843 c 0,0 12.09524,4.535712 -3.02382,18.898809 C 323.5476,-53.00594 317.5,-46.202368 317.5,-46.202368 l -9.07143,23.434524 c 0,0 -6.80357,28.7261877 -6.80357,34.017854 0,5.291667 -3.02382,46.113102 -3.02382,46.113102 l 10.58333,46.869028 26.45834,52.16073 33.2619,32.50594 15.11906,7.55954 10.58334,2.26785 10.58333,-6.80357 4.5357,-10.58334 7.55954,-2.26785 0.75594,16.63094 6.04761,24.19049 -0.75594,12.85118 c 0,0 -2.26785,5.29167 -6.80358,6.80358 -4.5357,1.5119 -13.60715,0.75594 -13.60715,0.75594 l -17.38688,-6.04761 -22.67857,-20.41073 -30.2381,-27.21427 c 0,0 -24.19048,-33.26191 -24.19048,-36.28573 0,-3.02379 -11.3393,-45.35712 -12.09524,-48.38094 -0.75594,-3.023813 -6.04761,-49.136904 -6.04761,-49.136904 l -1.51191,-51.4047546 4.5357,-35.5297634 3.02382,-21.922618 -153.45833,79.374999 -11.33929,5.291667 -6.80357,-2.267857 -7.55952,-13.607143 -12.85119,-13.60714211 2.26785,-16.63095189 c 0,0 1.51191,-4.535715 4.53572,-5.291666 3.02381,-0.755954 5.29167,-0.755954 5.29167,-0.755954 0,0 4.53571,-3.023809 4.53571,2.267857 0,5.291667 -3.77976,7.559524 0,10.583333 3.77976,3.0238094 10.58333,6.8035728 10.58333,6.8035728 l 167.06547,-60.4761898 2.26788,-13.607143 5.29166,-6.04762 z"
       id="path832"
       inkscape:connector-curvature="0" />
    <path
       style="fill:#000000;stroke:#000000;stroke-width:0.26458332px;stroke-linecap:butt;stroke-linejoin:miter;stroke-opacity:1;fill-opacity:1"
       d="m 204.10714,22.589298 c 3.02381,1.511903 2.26786,9.071427 2.26786,9.071427 l -4.53572,7.559524 c 0,0 -1.5119,3.779761 -8.31547,0 -6.80357,-3.779761 -11.33929,-7.559524 -11.33929,-7.559524 l -9.07143,-3.023809 h -7.55952 l -5.29167,2.267857 h -10.58333 l -0.75595,7.559525 8.31547,3.77976 c 0,0 15.875,0 15.875,6.047619 0,6.047618 -1.5119,49.892859 -1.5119,49.892859 l -17.38691,4.535704 -9.07142,-12.851188 -5.29167,-12.851182 -5.29167,-9.827393 -34.773806,-9.827365 -3.023809,1.511908 -2.267858,6.047608 15.875003,23.434516 5.29166,8.315484 h 10.58334 l 6.80357,3.779762 8.31547,6.80357 -79.374997,30.23809 -15.119045,-5.29166 -7.559524,6.80357 0.755951,9.82739 9.07143,6.04761 8.315476,5.29167 6.047618,8.31548 7.559524,8.31546 10.583333,-0.75594 27.214284,-22.67858 46.1131,-24.94642 c 0,0 22.67857,-7.55952 18.89881,15.11906 -3.77977,22.67854 -2.26786,41.57736 -2.26786,44.60118 0,3.02382 -3.77976,16.63094 -3.77976,16.63094 0,0 0,6.80357 -5.29167,6.04763 -5.29167,-0.75596 -8.31548,-3.02381 -8.31548,-3.02381 h -2.26785 l 23.43452,53.6726 c 0,0 9.82738,20.41073 15.11905,-9.07142 5.29166,-29.48213 1.5119,-49.13691 1.5119,-58.96428 0,-9.82739 0,-34.01784 0,-34.01784 l 0.75596,-18.89882 c 0,0 17.3869,16.63094 19.65476,24.94642 2.26785,8.31549 21.16666,30.23809 22.67857,34.01785 1.5119,3.77976 16.63095,21.16667 16.63095,21.16667 l 12.09524,9.07142 11.33928,-0.75594 6.80358,-12.09524 -2.26785,-11.33927 -10.58333,-14.36309 c 0,0 -4.53573,-8.31549 -7.55954,-12.09525 -3.02381,-3.77975 -12.85119,-13.60715 -12.85119,-13.60715 l -12.09524,-6.0476 -24.19047,-9.8274 -12.09524,-4.53572 -7.55952,-6.80355 v -13.60715 l 1.5119,-6.80358 21.92262,-9.07142 25.70238,-1.51191 c 0,0 49.1369,3.77976 20.41071,-21.922607 C 233.58928,59.630961 192.0119,97.428569 192.0119,97.428569 l 15.11905,-13.607124 c 0,0 -13.60714,0.755941 -11.33929,-3.023817 2.26786,-3.779758 15.11905,-12.095242 15.11905,-12.095242 l 21.92262,-22.678564 9.82738,-9.07143 -2.26786,-10.583333 -6.04761,-12.851191 -4.53572,-6.80357 -8.31547,-6.04762088 -14.3631,6.04762088 z"
       id="path834"
       inkscape:connector-curvature="0" />
    <path
       style="fill:#000000;stroke:#000000;stroke-width:0.26458332px;stroke-linecap:butt;stroke-linejoin:miter;stroke-opacity:1;fill-opacity:1"
       d="m 101.29762,167.73214 c 1.5119,9.07143 -7.559527,25.70239 -7.559527,25.70239 l 0.755954,18.89882 7.559523,12.09522 10.58333,12.85121 h 6.04762 c 0,0 3.77976,-6.04764 4.53572,-9.07143 0.75595,-3.02382 0,-17.38691 0,-17.38691 l -4.53572,-18.14287 c 0,0 -2.26785,-0.75594 -3.77976,-6.04761 -1.5119,-5.29167 -7.55952,-7.55952 -8.31548,-10.58333 -0.75595,-3.02382 -5.29166,-8.31549 -5.29166,-8.31549 z"
       id="path836"
       inkscape:connector-curvature="0" />
  </g>
</svg>
