<?xml version="1.0" encoding="UTF-8" standalone="no"?>
<!-- Created with Inkscape (http://www.inkscape.org/) -->

<svg
   xmlns:dc="http://purl.org/dc/elements/1.1/"
   xmlns:cc="http://creativecommons.org/ns#"
   xmlns:rdf="http://www.w3.org/1999/02/22-rdf-syntax-ns#"
   xmlns:svg="http://www.w3.org/2000/svg"
   xmlns="http://www.w3.org/2000/svg"
   xmlns:sodipodi="http://sodipodi.sourceforge.net/DTD/sodipodi-0.dtd"
   xmlns:inkscape="http://www.inkscape.org/namespaces/inkscape"
   version="1.1"
   id="svg2523"
   width="620"
   height="550"
   viewBox="0 0 620 550"
   sodipodi:docname="磨svg.svg"
   inkscape:version="0.92.4 (5da689c313, 2019-01-14)">
  <metadata
     id="metadata2529">
    <rdf:RDF>
      <cc:Work
         rdf:about="">
        <dc:format>image/svg+xml</dc:format>
        <dc:type
           rdf:resource="http://purl.org/dc/dcmitype/StillImage" />
        <dc:title></dc:title>
      </cc:Work>
    </rdf:RDF>
  </metadata>
  <defs
     id="defs2527" />
  <sodipodi:namedview
     pagecolor="#ffffff"
     bordercolor="#666666"
     borderopacity="1"
     objecttolerance="10"
     gridtolerance="10"
     guidetolerance="10"
     inkscape:pageopacity="0"
     inkscape:pageshadow="2"
     inkscape:window-width="1920"
     inkscape:window-height="1017"
     id="namedview2525"
     showgrid="false"
     inkscape:zoom="1.0017346"
     inkscape:cx="435.49012"
     inkscape:cy="359.12856"
     inkscape:window-x="-8"
     inkscape:window-y="-8"
     inkscape:window-maximized="1"
     inkscape:current-layer="svg2523" />
  <path
     style="fill:#000000;fill-opacity:1;stroke:#000000;stroke-width:1px;stroke-linecap:butt;stroke-linejoin:miter;stroke-opacity:1"
     d="m 208.63809,73.825975 c 0,0 13.97576,18.9671 14.97403,22.960173 0.99827,3.993072 16.97056,18.967102 16.97056,18.967102 l 20.96364,-11.97922 14.97402,-12.977492 8.98442,-3.993074 57.89957,-21.961905 66.88398,-12.977489 15.97229,-5.98961 24.95671,2.994805 h 20.96364 l 23.95844,1.996537 21.96191,5.98961 c 0,0 24.95671,-6.987878 1.99653,-17.968831 C 497.13766,27.905625 485.15844,23.912555 485.15844,23.912555 l -5.98961,-2.99481 -18.9671,12.977494 -59.8961,11.979221 -18.9671,2.994805 -17.96883,-28.94978 -77.86494,-12.97749 60.89437,50.911686 c 0,0 -96.83203,20.963636 -100.82511,21.961904 -3.99307,0.998269 -37.93419,-1.996536 -36.93593,-5.98961 z"
     id="path3076"
     inkscape:connector-curvature="0" />
  <path
     style="fill:#000000;fill-opacity:1;stroke:#000000;stroke-width:1px;stroke-linecap:butt;stroke-linejoin:miter;stroke-opacity:1"
     d="m 412.28485,68.834633 18.9671,3.993074 22.96017,8.984415 c 0,0 10.98095,5.989611 9.98268,11.979221 -0.99826,5.98961 -4.99134,22.960177 -4.99134,22.960177 l -3.99307,8.98441 32.94285,-13.97576 30.94633,6.98788 c 0,0 7.98614,8.98442 2.9948,10.98096 -4.99134,1.99653 -14.97403,5.9896 -19.96537,7.98614 -4.99134,1.99654 -9.98268,4.99134 -15.97229,6.98788 -5.98961,1.99654 -34.9394,5.98961 -35.93766,11.97922 -0.99827,5.98961 -2.99481,33.94113 -2.99481,33.94113 l 25.95498,4.99134 42.92554,16.97056 36.93593,21.9619 21.96191,26.95325 c 0,0 12.97748,39.93073 -14.97403,13.97576 -27.95152,-25.95498 -47.91688,-45.92035 -47.91688,-45.92035 L 487.15498,211.58701 461.2,198.60952 l -9.98269,0.99827 2.99481,67.88225 23.95844,7.98615 c 0,0 26.95325,15.97229 -1.99654,15.97229 -28.94978,0 -103.81991,20.96364 -103.81991,20.96364 l -45.92035,23.95844 -3.99307,2.9948 -15.97229,-9.98268 -12.97749,-13.97576 3.99307,-12.97749 17.96883,9.98269 111.80606,-32.94286 8.98442,-34.93939 c 0,0 4.99134,-24.95671 -10.98095,-6.98788 -15.9723,17.96883 -53.9065,36.93593 -53.9065,36.93593 l -11.97922,2.9948 68.88052,-66.88397 6.98788,-26.95325 c 0,0 4.99134,-26.95325 -7.98615,-11.97922 -12.97749,14.97402 -27.95151,21.9619 -27.95151,21.9619 l -30.94632,-23.95844 c 0,0 -1.99654,-4.99134 1.99653,-6.98788 3.99308,-1.99653 65.88572,-22.96017 65.88572,-22.96017 l -4.99134,-43.92381 -5.98961,-13.975758 z"
     id="path3078"
     inkscape:connector-curvature="0" />
  <path
     style="fill:#000000;fill-opacity:1;stroke:#000000;stroke-width:1px;stroke-linecap:butt;stroke-linejoin:miter;stroke-opacity:1"
     d="m 298.48225,257.50736 c 0,0 11.97922,8.98441 16.97056,3.99307 4.99134,-4.99134 9.98269,-22.96017 9.98269,-30.94632 0,-7.98614 2.9948,-26.95324 2.9948,-26.95324 0,0 -2.9948,-14.97403 -15.97229,7.98614 -12.97749,22.96017 -24.95671,34.93939 -28.94979,43.92381 -3.99307,8.98441 -14.97402,21.9619 -14.97402,21.9619 l -16.97057,-2.9948 5.98962,-18.9671 7.98614,-11.97922 11.97922,-5.98961 29.94805,-34.93939 c 0,0 9.98269,-12.97749 -3.99307,-7.98615 -13.97576,4.99134 -22.96017,-0.99827 -22.96017,-0.99827 l -13.97576,-9.98268 -6.98788,-8.98442 2.99481,-10.98095 55.90303,-29.94805 c 0,0 10.98095,-8.98442 2.9948,-17.96883 -7.98614,-8.98442 -13.97576,-14.97403 -13.97576,-14.97403 l 18.9671,-3.993072 c 0,0 1.99654,-2.994805 0,-0.998268 -1.99653,1.996537 23.95845,10.98095 13.97576,27.95152 -9.98268,16.97056 12.97749,-4.99135 12.97749,-4.99135 l 12.97749,0.99827 c 0,0 24.95671,2.99481 5.98961,18.9671 -18.9671,15.97229 -40.929,26.95325 -40.929,26.95325 l 2.9948,36.93593 21.96191,10.98095 c 0,0 16.97056,30.94632 -2.99481,20.96363 -19.96537,-9.98268 -24.95671,-24.9567 -22.96017,-12.97748 1.99653,11.97921 2.9948,56.90129 2.9948,56.90129 l -3.99307,17.96883 -12.97749,-6.98788 -8.98442,-13.97575 z"
     id="path3080"
     inkscape:connector-curvature="0" />
  <path
     style="fill:#000000;fill-opacity:1;stroke:#000000;stroke-width:1px;stroke-linecap:butt;stroke-linejoin:miter;stroke-opacity:1"
     d="m 425.26234,366.31861 22.96017,-16.97056 c 0,0 11.97922,-6.98788 14.97403,-2.99481 2.9948,3.99308 24.9567,16.97057 24.9567,16.97057 l 12.97749,12.97748 -31.94458,60.89438 h 10.98095 c 0,0 19.96537,18.9671 4.99134,21.9619 -14.97403,2.99481 -33.94113,-5.98961 -33.94113,-5.98961 l 1.99654,3.99307 -40.929,12.97749 -25.95498,3.99308 5.98961,19.96537 c 0,0 -5.98961,27.95151 -17.96883,6.98787 -11.97922,-20.96363 -11.97922,-33.94112 -11.97922,-33.94112 l -6.98788,-4.99134 -4.99134,-6.98788 -1.99654,-5.98961 3.99307,-0.99827 7.98615,2.9948 -8.98442,-53.90649 c 0,0 -2.9948,-20.96364 -21.9619,6.98788 -18.9671,27.95151 -30.94632,48.91515 -30.94632,48.91515 L 232.59654,538.02078 218.62078,550 c 0,0 -18.9671,6.98787 -12.97749,-22.96018 5.98961,-29.94805 9.98268,-41.92727 9.98268,-41.92727 l 9.98269,21.9619 57.89956,-60.89437 38.93247,-56.9013 9.98268,-24.95671 -1.99653,-6.98787 -4.99134,-2.99481 c 0,0 -9.98269,-14.97403 3.99307,-4.99134 13.97576,9.98268 17.96883,15.97229 17.96883,15.97229 l 11.97922,10.98095 40.92901,-7.98614 -19.96537,32.94285 8.98441,45.92035 51.90996,-9.98268 7.98615,-49.91342 -65.88572,12.97749 14.97403,-30.94632 z"
     id="path3082"
     inkscape:connector-curvature="0" />
  <path
     style="fill:#000000;fill-opacity:1;stroke:#000000;stroke-width:1px;stroke-linecap:butt;stroke-linejoin:miter;stroke-opacity:1"
     d="m 240.58268,115.75325 v 24.95671 l -3.99307,46.91861 -14.97403,51.90995 -19.96537,73.87187 -29.94805,76.86666 -41.92727,58.89784 -56.901297,45.92034 -47.916883,24.95671 5.98961,7.98615 29.948053,-9.98268 26.953246,-15.9723 37.934201,-22.96017 34.93939,-29.94805 32.94286,-50.91169 22.96017,-68.88052 18.9671,-68.88052 23.95844,-85.85108 1.99654,-32.94285 z"
     id="path3084"
     inkscape:connector-curvature="0" />
</svg>
