<?xml version="1.0" encoding="UTF-8" standalone="no"?>
<!-- Created with Inkscape (http://www.inkscape.org/) -->

<svg
   xmlns:dc="http://purl.org/dc/elements/1.1/"
   xmlns:cc="http://creativecommons.org/ns#"
   xmlns:rdf="http://www.w3.org/1999/02/22-rdf-syntax-ns#"
   xmlns:svg="http://www.w3.org/2000/svg"
   xmlns="http://www.w3.org/2000/svg"
   xmlns:sodipodi="http://sodipodi.sourceforge.net/DTD/sodipodi-0.dtd"
   xmlns:inkscape="http://www.inkscape.org/namespaces/inkscape"
   version="1.1"
   id="svg814"
   width="511"
   height="512"
   viewBox="0 0 511 512"
   sodipodi:docname="測svg.svg"
   inkscape:version="0.92.4 (5da689c313, 2019-01-14)">
  <metadata
     id="metadata820">
    <rdf:RDF>
      <cc:Work
         rdf:about="">
        <dc:format>image/svg+xml</dc:format>
        <dc:type
           rdf:resource="http://purl.org/dc/dcmitype/StillImage" />
        <dc:title></dc:title>
      </cc:Work>
    </rdf:RDF>
  </metadata>
  <defs
     id="defs818" />
  <sodipodi:namedview
     pagecolor="#ffffff"
     bordercolor="#666666"
     borderopacity="1"
     objecttolerance="10"
     gridtolerance="10"
     guidetolerance="10"
     inkscape:pageopacity="0"
     inkscape:pageshadow="2"
     inkscape:window-width="1920"
     inkscape:window-height="1017"
     id="namedview816"
     showgrid="false"
     inkscape:zoom="1.0017346"
     inkscape:cx="-126.45136"
     inkscape:cy="441.21338"
     inkscape:window-x="-8"
     inkscape:window-y="-8"
     inkscape:window-maximized="1"
     inkscape:current-layer="svg814" />
  <path
     style="fill:#000000;fill-opacity:1;stroke:#000000;stroke-width:1px;stroke-linecap:butt;stroke-linejoin:miter;stroke-opacity:1"
     d="m 38.932467,209.52468 c 0,0 12.97749,27.95151 0.998269,50.91168 -11.979221,22.96017 13.975757,29.94805 13.975757,29.94805 l 17.968831,-12.97749 5.989611,-28.94978 -10.980953,-14.97402 z"
     id="path1367"
     inkscape:connector-curvature="0" />
  <path
     style="fill:#000000;fill-opacity:1;stroke:#000000;stroke-width:1px;stroke-linecap:butt;stroke-linejoin:miter;stroke-opacity:1"
     d="m 83.854545,58.786145 8.984416,26.953251 c 0,0 5.98961,0 11.979219,16.970564 5.98961,16.97056 -2.9948,38.93247 -2.9948,38.93247 l -3.993077,229.60172 -7.986147,16.97057 12.977494,31.94458 c 0,0 12.97748,14.97403 12.97748,-8.98441 0,-23.95844 2.99481,-240.58268 3.99308,-245.57402 0.99827,-4.99135 14.97402,-53.9065 14.97402,-53.9065 0,0 4.99135,-19.965364 -14.97402,-33.941122 C 99.82684,63.777491 83.854545,58.786145 83.854545,58.786145 Z"
     id="path1369"
     inkscape:connector-curvature="0" />
  <path
     style="fill:#000000;fill-opacity:1;stroke:#000000;stroke-width:1px;stroke-linecap:butt;stroke-linejoin:miter;stroke-opacity:1"
     d="m 141.75411,142.64069 c 0,0 10.98096,13.97576 9.98269,17.96883 -0.99827,3.99308 -5.98961,13.97576 -3.99308,26.95325 1.99654,12.97749 4.99135,28.94979 4.99135,28.94979 0,0 24.95671,11.97922 24.95671,-0.99827 0,-12.97749 9.98268,-34.9394 9.98268,-34.9394 l -5.98961,-9.98268 -21.96191,-17.96883 z"
     id="path1371"
     inkscape:connector-curvature="0" />
  <path
     style="fill:#000000;fill-opacity:1;stroke:#000000;stroke-width:1px;stroke-linecap:butt;stroke-linejoin:miter;stroke-opacity:1"
     d="m 205.64329,139.64589 c 0,0 -24.95671,-39.930737 -4.99134,-24.95671 19.96537,14.97402 17.96883,29.94805 17.96883,29.94805 l 12.97749,6.98788 c 0,0 17.96883,-16.97056 20.96364,-9.98268 2.9948,6.98787 2.9948,29.94805 -1.99654,31.94458 -4.99134,1.99654 -21.96191,-6.98787 -21.96191,-6.98787 0,0 -15.97229,-6.98788 -14.97402,6.98787 0.99827,13.97576 2.9948,46.91862 2.9948,46.91862 l 18.9671,-10.98095 9.98269,-0.99827 c 0,0 18.9671,6.98788 5.98961,13.97576 -12.97749,6.98787 -32.94286,12.97748 -32.94286,12.97748 l -0.99827,32.94286 12.97749,-7.98615 2.99481,2.99481 -12.97749,8.98441 -43.92381,29.94805 c 0,0 -12.97749,11.97922 -21.96191,9.98269 -8.98441,-1.99654 -12.97749,-6.98788 -12.97749,-12.97749 0,-5.98961 -0.99827,-11.97922 -0.99827,-11.97922 0,0 4.99135,-6.98788 6.98788,-2.99481 1.99654,3.99308 4.99135,7.98615 4.99135,7.98615 l 39.93073,-15.9723 12.97749,-7.98614 c 0,0 -6.98788,0 -5.98961,-10.98095 0.99827,-10.98095 5.98961,-117.79567 5.98961,-117.79567 z"
     id="path1373"
     inkscape:connector-curvature="0" />
  <path
     style="fill:#000000;fill-opacity:1;stroke:#000000;stroke-width:1px;stroke-linecap:butt;stroke-linejoin:miter;stroke-opacity:1"
     d="m 210.63463,79.749785 c 23.95844,0 43.92381,-10.980952 43.92381,-10.980952 l 30.94632,2.994805 18.9671,6.987879 c 0,0 6.98788,19.965368 -10.98095,35.937663 -17.96883,15.97229 0,81.85801 0,81.85801 l 9.98268,168.70735 c 0,0 -5.98961,30.94632 -19.96536,6.98788 -13.97576,-23.95844 -28.94979,-58.89783 -28.94979,-58.89783 l 1.99654,-7.98615 c 0,0 22.96017,27.95151 22.96017,18.9671 0,-8.98442 -9.98268,-20.96364 -7.98614,-29.94805 1.99653,-8.98442 7.98614,-63.88918 7.98614,-63.88918 l -3.99307,-82.85627 -8.98442,-52.908229 c 0,0 -22.96017,23.958439 -38.93246,10.980949 C 211.6329,92.727274 210.63463,79.749785 210.63463,79.749785 Z"
     id="path1375"
     inkscape:connector-curvature="0" />
  <path
     style="fill:#000000;fill-opacity:1;stroke:#000000;stroke-width:1px;stroke-linecap:butt;stroke-linejoin:miter;stroke-opacity:1"
     d="m 260.54805,264.42943 -62.89091,75.8684 -27.95151,23.95844 -12.97749,-2.9948 c 0,0 3.99307,32.94286 13.97576,25.95498 9.98268,-6.98788 76.86666,-95.83377 76.86666,-95.83377 z"
     id="path1377"
     inkscape:connector-curvature="0" />
  <path
     style="fill:#000000;fill-opacity:1;stroke:#000000;stroke-width:1px;stroke-linecap:butt;stroke-linejoin:miter;stroke-opacity:1"
     d="m 327.43204,153.62165 1.99653,23.95844 v 21.9619 l 13.97576,17.96883 18.9671,12.97749 V 202.5368 l -5.98961,-26.95325 -16.97056,-16.97056 z"
     id="path1379"
     inkscape:connector-curvature="0" />
  <path
     style="fill:#000000;fill-opacity:1;stroke:#000000;stroke-width:1px;stroke-linecap:butt;stroke-linejoin:miter;stroke-opacity:1"
     d="m 378.34372,70.76537 -9.98268,9.982684 16.97056,11.97922 11.97922,271.528996 c 0,0 3.99308,28.94979 -9.98268,19.96537 -13.97576,-8.98441 -27.95152,-18.9671 -27.95152,-18.9671 l 19.96537,39.93074 18.9671,37.9342 9.98269,15.97229 c 0,0 12.97748,-12.97749 12.97748,-16.97056 0,-3.99308 -6.98787,-46.91862 -6.98787,-55.90303 0,-8.98442 -13.97576,-154.7316 -13.97576,-154.7316 l 2.9948,-91.84069 8.98442,-39.930737 5.98961,-8.984415 c 0,0 9.98268,-13.975758 -0.99827,-18.9671 -10.98095,-4.991342 -16.97056,-11.979221 -16.97056,-11.979221 l -13.97576,-4.991342 z"
     id="path1381"
     inkscape:connector-curvature="0" />
</svg>
