<?xml version="1.0" encoding="UTF-8" standalone="no"?>
<!-- Created with Inkscape (http://www.inkscape.org/) -->

<svg
   xmlns:dc="http://purl.org/dc/elements/1.1/"
   xmlns:cc="http://creativecommons.org/ns#"
   xmlns:rdf="http://www.w3.org/1999/02/22-rdf-syntax-ns#"
   xmlns:svg="http://www.w3.org/2000/svg"
   xmlns="http://www.w3.org/2000/svg"
   xmlns:sodipodi="http://sodipodi.sourceforge.net/DTD/sodipodi-0.dtd"
   xmlns:inkscape="http://www.inkscape.org/namespaces/inkscape"
   version="1.1"
   id="svg9020"
   width="580"
   height="550"
   viewBox="0 0 580 550"
   sodipodi:docname="造svg.svg"
   inkscape:version="0.92.4 (5da689c313, 2019-01-14)">
  <metadata
     id="metadata9026">
    <rdf:RDF>
      <cc:Work
         rdf:about="">
        <dc:format>image/svg+xml</dc:format>
        <dc:type
           rdf:resource="http://purl.org/dc/dcmitype/StillImage" />
        <dc:title></dc:title>
      </cc:Work>
    </rdf:RDF>
  </metadata>
  <defs
     id="defs9024" />
  <sodipodi:namedview
     pagecolor="#ffffff"
     bordercolor="#666666"
     borderopacity="1"
     objecttolerance="10"
     gridtolerance="10"
     guidetolerance="10"
     inkscape:pageopacity="0"
     inkscape:pageshadow="2"
     inkscape:window-width="1920"
     inkscape:window-height="1017"
     id="namedview9022"
     showgrid="false"
     inkscape:zoom="0.70833335"
     inkscape:cx="245.95841"
     inkscape:cy="227.4377"
     inkscape:window-x="-8"
     inkscape:window-y="-8"
     inkscape:window-maximized="1"
     inkscape:current-layer="svg9020" />
  <path
     style="fill:#000000;fill-opacity:1;stroke:#000000;stroke-width:1px;stroke-linecap:butt;stroke-linejoin:miter;stroke-opacity:1"
     d="m 45.176462,110.2353 c 0,2.82353 12.70589,33.17647 18.35294,31.76471 5.64706,-1.41177 9.88236,-3.52942 9.88236,-3.52942 l 9.17647,20.47059 6.35294,9.88235 c 0,0 16.235288,-7.7647 19.764698,-8.47058 3.52941,-0.70589 20.47059,-2.11765 20.47059,-2.11765 0,0 20.47059,-16.23529 0,-24.70588 -20.47059,-8.47059 -45.176468,-14.82353 -45.176468,-14.82353 z"
     id="path9030"
     inkscape:connector-curvature="0" />
  <path
     style="fill:#000000;fill-opacity:1;stroke:#000000;stroke-width:1px;stroke-linecap:butt;stroke-linejoin:miter;stroke-opacity:1"
     d="m 86.117642,201.29412 c 0,0 0,10.58824 -4.23529,12.70589 -4.2353,2.11764 -41.64706,18.35294 -41.64706,18.35294 l -9.88236,-2.11765 -1.41176,9.88235 28.94118,28.2353 17.64705,-4.2353 18.35295,-16.94117 26.117638,-12.70589 c 0,0 13.41177,-18.35294 0,-24 -13.41176,-5.64706 -33.882348,-9.17647 -33.882348,-9.17647 z"
     id="path9032"
     inkscape:connector-curvature="0" />
  <path
     style="fill:#000000;fill-opacity:1;stroke:#000000;stroke-width:1px;stroke-linecap:butt;stroke-linejoin:miter;stroke-opacity:1"
     d="m 128.47058,277.52942 -4.2353,4.94117 -3.52941,7.76471 -76.941168,38.82353 c 0,0 -13.41177,-1.41177 -11.29412,-14.82353 2.11765,-13.41177 0.70588,-18.35294 0.70588,-18.35294 l -12,19.05882 c 0,0 -5.64706,7.76471 2.82353,18.35294 8.47059,10.58824 18.35294,21.17647 18.35294,21.17647 0,0 2.82353,9.17647 16.94118,-2.11764 14.11765,-11.29412 33.17647,-28.94118 33.17647,-28.94118 l 9.176468,8.47059 9.88235,-12 17.64706,-14.82353 13.41177,-5.64706 c 0,0 13.41176,-2.11765 -14.11765,-21.88235 z"
     id="path9034"
     inkscape:connector-curvature="0" />
  <path
     style="fill:#000000;fill-opacity:1;stroke:#000000;stroke-width:1px;stroke-linecap:butt;stroke-linejoin:miter;stroke-opacity:1"
     d="m 122.11764,368.58824 3.52941,-14.82353 -7.76471,-4.23529 -4.94117,2.82353 -6.35294,19.7647 7.7647,9.88236 26.11765,10.58823 3.52941,10.58824 -36,15.52941 -16.941168,-4.94118 -6.35294,11.29412 13.41176,20.47059 c 0,0 7.764698,1.41176 17.647058,-9.17647 9.88235,-10.58824 24,-14.82353 24,-14.82353 l 14.82353,-4.2353 21.17647,4.2353 117.88241,40.94117 112.9412,21.88236 16.2353,-0.70589 8.4705,-6.35294 121.4118,-53.64706 9.1765,-11.29411 -38.1177,7.7647 -108,15.52941 -134.1176,-0.70588 3.5294,-10.58823 -4.2353,-19.05883 -3.5294,-11.29411 14.1176,-9.88236 64.2353,-16.23529 19.0589,2.82353 c 0,0 27.5294,-9.17647 7.7647,-19.05883 -19.7647,-9.88235 -24.7059,-15.52941 -24.7059,-15.52941 l 19.7647,-34.58823 c 0,0 3.5294,-1.41177 4.9412,-6.35294 1.4117,-4.94118 17.647,-19.05883 5.647,-28.94118 -12,-9.88235 -21.8823,-22.58824 -32.4706,-14.82353 -10.5882,7.76471 -16.2353,21.17647 -16.2353,21.17647 l -24.7058,7.05882 c 0,0 -3.5295,2.82353 -2.8236,-7.05882 0.7059,-9.88235 -8.4706,-36 -4.9412,-38.11765 3.5295,-2.11764 78.353,-15.52941 78.353,-15.52941 l 25.4118,2.11765 12,0.70588 c 0,0 14.1176,-6.35294 1.4117,-14.82353 -12.7059,-8.47059 -25.4117,-12.70588 -25.4117,-12.70588 l -52.9412,4.94118 c 0,0 -30.353,13.41176 -30.353,9.88235 0,-3.52941 -2.8235,-39.52941 -2.8235,-39.52941 l 26.1177,-21.17647 14.1176,-9.88236 c 0,0 16.9412,-37.41176 -4.9412,-26.82353 -21.8823,10.58824 -34.5882,17.64706 -34.5882,17.64706 0,0 -7.7647,2.11765 -4.2353,-5.64706 3.5294,-7.7647 9.8823,-35.294113 9.8823,-35.294113 0,0 14.1177,-33.17647 6.353,-43.05883 -7.7647,-9.88235 -14.1177,-28.94117 -23.2941,-31.7647 -9.1765,-2.82353 -28.9412,-4.2353004 -28.9412,-4.2353004 0,0 14.8235,21.8823604 17.6471,28.9411804 2.8235,7.05882 9.8823,30.35294 9.8823,30.35294 0,0 -5.6471,10.58824 -5.6471,14.82353 0,4.23529 0,57.176473 0,57.176473 l -34.5882,13.41177 c 0,0 14.1177,23.29411 22.5882,23.29411 8.4706,0 14.8236,1.41177 14.8236,1.41177 l -4.9412,36 -81.17651,33.17647 -16.94118,-5.64706 -1.41176,12 16.94117,21.88235 19.76471,2.11765 4.23529,-8.47059 24,-16.23529 29.64708,-16.2353 c 0,0 14.8236,-3.52941 12,9.17647 -2.8235,12.70589 -5.647,40.2353 -5.647,40.2353 l -19.0589,-7.76471 -5.647,2.11765 c 0,0 2.1176,14.11765 2.8235,16.94117 0.7059,2.82353 3.5294,16.2353 13.4118,15.52942 9.8823,-0.70589 40.2353,-12 40.2353,-12 0,0 14.1176,-8.47059 14.8235,3.52941 0.7059,12 -5.6471,37.41176 -5.6471,37.41176 l -49.4117,17.64706 c 0,0 -7.7647,3.52941 -11.2941,-9.88235 -3.5295,-13.41177 -13.4118,-33.88235 -13.4118,-33.88235 l -18.35299,-15.52942 c 0,0 -33.17647,-14.11764 -24.70588,3.52942 8.47059,17.64705 29.64706,40.94117 29.64706,40.94117 l 7.05882,36 7.76479,31.05883 3.5294,16.94117 -23.29419,0.70589 -38.11765,-12.70589 -40.94117,-8.47059 -12.70589,-4.23529 c 0,0 5.64706,-17.64706 -10.58823,-27.52941 -16.2353,-9.88235 -18.35294,-8.47059 -18.35294,-8.47059 z"
     id="path9036"
     inkscape:connector-curvature="0" />
  <path
     style="fill:#000000;fill-opacity:1;stroke:#000000;stroke-width:1px;stroke-linecap:butt;stroke-linejoin:miter;stroke-opacity:1"
     d="m 211.7647,199.88236 17.64706,-19.76471 15.52941,-28.23529 7.05882,-22.58824 -7.05882,-17.64706 -11.29412,-12.705883 -7.05882,-6.35294 -9.17647,13.411773 16.23529,30.35294 z"
     id="path9038"
     inkscape:connector-curvature="0" />
</svg>
