<?xml version="1.0" encoding="UTF-8" standalone="no"?>
<!-- Created with Inkscape (http://www.inkscape.org/) -->

<svg
   xmlns:dc="http://purl.org/dc/elements/1.1/"
   xmlns:cc="http://creativecommons.org/ns#"
   xmlns:rdf="http://www.w3.org/1999/02/22-rdf-syntax-ns#"
   xmlns:svg="http://www.w3.org/2000/svg"
   xmlns="http://www.w3.org/2000/svg"
   xmlns:sodipodi="http://sodipodi.sourceforge.net/DTD/sodipodi-0.dtd"
   xmlns:inkscape="http://www.inkscape.org/namespaces/inkscape"
   version="1.1"
   id="svg3713"
   width="512"
   height="512"
   viewBox="0 0 512 512"
   sodipodi:docname="ä».svg"
   inkscape:version="0.92.4 (5da689c313, 2019-01-14)">
  <metadata
     id="metadata3719">
    <rdf:RDF>
      <cc:Work
         rdf:about="">
        <dc:format>image/svg+xml</dc:format>
        <dc:type
           rdf:resource="http://purl.org/dc/dcmitype/StillImage" />
        <dc:title></dc:title>
      </cc:Work>
    </rdf:RDF>
  </metadata>
  <defs
     id="defs3717" />
  <sodipodi:namedview
     pagecolor="#ffffff"
     bordercolor="#666666"
     borderopacity="1"
     objecttolerance="10"
     gridtolerance="10"
     guidetolerance="10"
     inkscape:pageopacity="0"
     inkscape:pageshadow="2"
     inkscape:window-width="1920"
     inkscape:window-height="1017"
     id="namedview3715"
     showgrid="false"
     inkscape:zoom="1.3055556"
     inkscape:cx="508.38135"
     inkscape:cy="324.49434"
     inkscape:window-x="-8"
     inkscape:window-y="-8"
     inkscape:window-maximized="1"
     inkscape:current-layer="svg3713" />
  <path
     style="fill:#000000;fill-opacity:0.95808381;stroke:#000000;stroke-width:1px;stroke-linecap:butt;stroke-linejoin:miter;stroke-opacity:1"
     d="m 285.70212,155.82978 18.38298,3.82979 76.59575,-26.04255 c 0,0 10.7234,-9.95745 7.65957,-16.08511 -3.06383,-6.12766 20.68085,11.48936 17.61702,21.44681 -3.06383,9.95745 -5.3617,17.61702 -9.95744,19.14894 -4.59575,1.53191 -65.87234,24.51063 -65.87234,24.51063 0,0 -3.06383,3.82979 -8.42554,2.29788 -5.3617,-1.53192 -32.17021,-17.61703 -36,-29.10639 z"
     id="path3723"
     inkscape:connector-curvature="0" />
  <path
     style="fill:#000000;fill-opacity:0.95808381;stroke:#000000;stroke-width:1px;stroke-linecap:butt;stroke-linejoin:miter;stroke-opacity:1"
     d="m 221.3617,301.3617 15.31915,4.59574 37.53191,-8.42553 46.72341,-9.95745 60.51063,-8.42553 6.89362,-5.3617 9.19149,3.82979 8.42553,-3.82979 11.10639,0.76596 39.4468,13.78723 0.38298,6.51064 -26.04255,7.65957 -21.44681,-4.59574 -144.38298,21.06383 -1.14893,4.97872 -36.38298,-12.6383 c 0,0 -4.97873,-3.82978 -4.97873,-9.19148 0,-5.36171 -1.14893,-0.76596 -1.14893,-0.76596 z"
     id="path3725"
     inkscape:connector-curvature="0" />
  <path
     style="fill:#000000;fill-opacity:0.95808381;stroke:#000000;stroke-width:1px;stroke-linecap:butt;stroke-linejoin:miter;stroke-opacity:1"
     d="m 170.80851,71.957442 c 0,0 -23.74468,-6.510638 -25.65958,-3.446808 -1.91489,3.06383 -3.44681,-14.553192 5.74468,-16.851064 9.19149,-2.297872 15.31915,3.446809 15.31915,3.446809 l 18,19.148936 c 0,0 15.31915,4.595744 17.61702,13.787235 2.29788,9.19149 -4.59574,18.76596 -4.59574,18.76596 0,0 -71.23404,132.12766 -84.25532,138.63829 -13.021273,6.51064 -5.74468,3.06383 -5.74468,3.06383 l -11.489359,16.46809 -66.25532,33.31915 c 0,0 -5.361702,1.53191 -7.276595,-2.29787 -1.914894,-3.82979 8.80851,-12.25532 8.80851,-12.25532 L 55.148936,261.14893 72,239.70212 l 18.382979,-19.14893 14.936171,-18.76596 23.3617,-39.82979 18.38298,-35.23404 z"
     id="path3727"
     inkscape:connector-curvature="0" />
  <path
     style="fill:#000000;fill-opacity:1;stroke:#000000;stroke-width:1px;stroke-linecap:butt;stroke-linejoin:miter;stroke-opacity:1"
     d="m 147.82978,220.17021 c 0,0 -2.68085,6.12766 4.21277,11.87234 6.89362,5.74468 12.25532,47.10638 12.25532,47.10638 l -3.44681,26.04256 -6.12766,58.21276 c 0,0 5.74468,29.48936 19.14894,36.76596 13.40425,7.27659 11.48936,-37.9149 11.48936,-37.9149 l -0.76596,-58.59574 c 0,0 4.59575,-33.70213 -3.06383,-48.25532 -7.65957,-14.55319 -21.82979,-35.23404 -33.70213,-35.23404 z"
     id="path3729"
     inkscape:connector-curvature="0" />
</svg>
