<?xml version="1.0" encoding="UTF-8" standalone="no"?>
<!-- Created with Inkscape (http://www.inkscape.org/) -->

<svg
   xmlns:dc="http://purl.org/dc/elements/1.1/"
   xmlns:cc="http://creativecommons.org/ns#"
   xmlns:rdf="http://www.w3.org/1999/02/22-rdf-syntax-ns#"
   xmlns:svg="http://www.w3.org/2000/svg"
   xmlns="http://www.w3.org/2000/svg"
   xmlns:sodipodi="http://sodipodi.sourceforge.net/DTD/sodipodi-0.dtd"
   xmlns:inkscape="http://www.inkscape.org/namespaces/inkscape"
   version="1.1"
   id="svg1383"
   width="540"
   height="512"
   viewBox="0 0 540 512"
   sodipodi:docname="慈.svg"
   inkscape:version="0.92.4 (5da689c313, 2019-01-14)">
  <metadata
     id="metadata1389">
    <rdf:RDF>
      <cc:Work
         rdf:about="">
        <dc:format>image/svg+xml</dc:format>
        <dc:type
           rdf:resource="http://purl.org/dc/dcmitype/StillImage" />
        <dc:title></dc:title>
      </cc:Work>
    </rdf:RDF>
  </metadata>
  <defs
     id="defs1387" />
  <sodipodi:namedview
     pagecolor="#ffffff"
     bordercolor="#666666"
     borderopacity="1"
     objecttolerance="10"
     gridtolerance="10"
     guidetolerance="10"
     inkscape:pageopacity="0"
     inkscape:pageshadow="2"
     inkscape:window-width="1920"
     inkscape:window-height="1017"
     id="namedview1385"
     showgrid="false"
     inkscape:zoom="1.0017346"
     inkscape:cx="192.76778"
     inkscape:cy="436.19474"
     inkscape:window-x="-8"
     inkscape:window-y="-8"
     inkscape:window-maximized="1"
     inkscape:current-layer="svg1383" />
  <path
     style="fill:#000000;fill-opacity:1;stroke:#000000;stroke-width:1px;stroke-linecap:butt;stroke-linejoin:miter;stroke-opacity:1"
     d="m 203.64675,58.786148 0.99827,19.965368 31.94459,31.944594 -30.94632,13.97575 -121.788745,33.94113 c 0,0 -11.979221,-1.99654 -15.972294,-1.99654 -3.993074,0 -32.942857,-9.98268 -32.942857,-9.98268 l -5.989611,7.98614 18.9671,23.95845 32.942857,17.96883 23.95844,-21.96191 115.79914,-46.91861 106.81472,-21.96191 89.84415,-4.99134 54.90476,19.96537 26.95325,13.97576 c 0,0 38.93247,1.99653 11.97922,-32.94286 C 484.16017,66.772295 430.25368,86.737663 430.25368,86.737663 L 312.45801,94.72381 343.40433,69.7671 c 0,0 23.95844,-15.972294 -2.9948,-29.948047 -26.95325,-13.97576 -40.92901,-15.9723 -40.92901,-15.9723 l 18.9671,29.948053 -26.95325,46.918614 -29.94805,8.98442 c 0,0 -0.99827,-1.99654 -3.99307,-9.982688 -2.99481,-7.986147 -16.97056,-14.974026 -16.97056,-14.974026 l -25.95498,-11.97922 z"
     id="path1936"
     inkscape:connector-curvature="0" />
  <path
     style="fill:#000000;fill-opacity:1;stroke:#000000;stroke-width:1px;stroke-linecap:butt;stroke-linejoin:miter;stroke-opacity:1"
     d="m 224.61039,164.6026 c 0,0 -0.99827,-37.9342 10.98095,-23.95844 11.97922,13.97575 11.97922,30.94632 11.97922,30.94632 l -39.93073,31.94459 -6.98788,14.97402 34.93939,5.98961 30.94632,-32.94285 3.99308,-9.98269 8.98441,23.95844 -39.93073,32.94286 -40.92901,32.94285 45.92035,-8.98441 1.99654,-10.98095 v -7.98615 l 20.96363,10.98095 c 0,0 4.99134,12.97749 4.99134,20.96364 0,7.98614 -1.99653,24.95671 -1.99653,24.95671 l -9.98269,-7.98615 -9.98268,-20.96364 -2.99481,-4.99134 -65.88571,45.92035 -13.97576,-1.99654 -1.99653,-11.97922 -9.98269,-11.97922 c 0,0 1.99654,-16.97056 13.97576,-11.97922 11.97922,4.99134 37.9342,-29.94805 37.9342,-29.94805 l 15.97229,-8.98442 -6.98788,-0.99826 -32.94285,8.98441 -8.98442,7.98615 -12.97749,0.99826 v -14.97402 c 0,0 -7.98615,-3.99307 -6.98788,-8.98441 0.99827,-4.99135 0.99827,-21.96191 10.98096,-18.9671 9.98268,2.9948 18.9671,6.98788 18.9671,6.98788 l 25.95497,-35.93767 z"
     id="path1938"
     inkscape:connector-curvature="0" />
  <path
     style="fill:#000000;fill-opacity:1;stroke:#000000;stroke-width:1px;stroke-linecap:butt;stroke-linejoin:miter;stroke-opacity:1"
     d="m 334.41991,117.68398 6.98788,16.97057 -23.95844,51.90995 -19.96537,8.98442 c 0,0 -3.99307,7.98615 -0.99826,21.9619 2.9948,13.97576 16.97056,23.95845 20.96363,17.96883 3.99308,-5.98961 14.97403,-18.96709 14.97403,-18.96709 l 12.97749,-5.98962 v 18.9671 l -20.96364,18.9671 -7.98615,6.98788 c 0,0 -12.97749,-3.99307 -14.97402,10.98095 -1.99654,14.97403 13.97576,15.9723 13.97576,15.9723 l 12.97748,2.9948 45.92035,-28.94978 c 0,0 5.98961,-12.97749 15.9723,9.98268 9.98268,22.96017 11.97922,27.95152 11.97922,27.95152 0,0 21.9619,13.97575 19.96536,-19.96537 C 420.271,240.471 379.34199,228.49178 379.34199,228.49178 l -12.97749,-3.99308 11.97922,19.96537 c 0,0 -38.93246,24.95671 -35.93766,12.97749 2.99481,-11.97922 2.99481,-25.95498 7.98615,-28.94978 4.99134,-2.99481 15.97229,-5.98961 15.97229,-5.98961 l 8.98442,-22.96018 15.97229,-16.97056 1.99654,-7.98615 -14.97403,-13.97575 c 0,0 -10.98095,-6.98788 -10.98095,-2.99481 0,3.99307 0.99827,17.96883 0.99827,17.96883 l -2.9948,9.98268 -32.94286,9.98269 26.95324,-43.92381 c 0,0 8.98442,-12.97749 1.99654,-18.9671 -6.98788,-5.98961 -15.97229,-15.97229 -15.97229,-15.97229 z"
     id="path1940"
     inkscape:connector-curvature="0" />
  <path
     style="fill:#000000;fill-opacity:1;stroke:#000000;stroke-width:1px;stroke-linecap:butt;stroke-linejoin:miter;stroke-opacity:1"
     d="m 399.30736,317.33766 23.95844,-5.98961 7.98615,-5.98961 49.91342,10.98095 c 0,0 46.91861,36.93593 11.97922,27.95152 -34.93939,-8.98442 -50.91169,-17.96883 -50.91169,-17.96883 l -25.95498,-7.98615 z"
     id="path1942"
     inkscape:connector-curvature="0" />
  <path
     style="fill:#000000;fill-opacity:1;stroke:#000000;stroke-width:1px;stroke-linecap:butt;stroke-linejoin:miter;stroke-opacity:1"
     d="m 383.33507,324.32554 c -4.99135,2.9948 -23.95845,14.97402 -23.95845,14.97402 l -11.97922,24.95671 -16.97056,0.99827 c 0,0 -24.95671,-5.98961 -26.95325,-12.97749 -1.99653,-6.98787 -6.98787,-23.95844 -6.98787,-23.95844 l -0.99827,-24.95671 16.97056,25.95498 c 0,0 4.99134,17.96883 17.96883,11.97922 12.97749,-5.98961 34.9394,-12.97749 34.9394,-12.97749 z"
     id="path1944"
     inkscape:connector-curvature="0" />
  <path
     style="fill:#000000;fill-opacity:1;stroke:#000000;stroke-width:1px;stroke-linecap:butt;stroke-linejoin:miter;stroke-opacity:1"
     d="m 362.37143,349.28225 23.95844,62.89091 -16.97056,1.99653 -34.9394,-1.99653 -25.95497,-5.98961 -38.93247,-21.96191 -26.95325,-24.95671 -9.98268,-16.97056 c 0,0 -18.9671,-14.97403 -17.96883,-5.98961 0.99827,8.98442 39.93073,51.90996 39.93073,51.90996 l 45.92035,34.93939 39.93074,9.98268 61.89264,2.99481 40.929,-10.98095 c 0,0 23.95844,-21.96191 -0.99827,-23.95844 -24.95671,-1.99654 -35.93766,-13.97576 -40.929,-16.97057 -4.99134,-2.9948 -20.96364,-23.95844 -25.95498,-27.95151 -4.99134,-3.99308 -6.98788,-6.98788 -12.97749,-6.98788 z"
     id="path1946"
     inkscape:connector-curvature="0" />
  <path
     style="fill:#000000;fill-opacity:1;stroke:#000000;stroke-width:1px;stroke-linecap:butt;stroke-linejoin:miter;stroke-opacity:1"
     d="m 159.72295,361.26147 c 0,0 -7.98615,26.95325 -8.98442,30.94632 -0.99827,3.99307 0.99827,20.96364 1.99654,24.95671 0.99826,3.99307 1.99653,19.96537 1.99653,19.96537 l -7.98614,8.98441 -9.98269,3.99308 -12.97749,-8.98442 -1.99653,-19.96537 -7.98615,-14.97402 3.99307,-14.97403 6.98788,-4.99134 10.98095,-10.98095 14.97403,-7.98615 z"
     id="path1948"
     inkscape:connector-curvature="0" />
</svg>
