<?xml version="1.0" encoding="UTF-8" standalone="no"?>
<!-- Created with Inkscape (http://www.inkscape.org/) -->

<svg
   xmlns:dc="http://purl.org/dc/elements/1.1/"
   xmlns:cc="http://creativecommons.org/ns#"
   xmlns:rdf="http://www.w3.org/1999/02/22-rdf-syntax-ns#"
   xmlns:svg="http://www.w3.org/2000/svg"
   xmlns="http://www.w3.org/2000/svg"
   xmlns:sodipodi="http://sodipodi.sourceforge.net/DTD/sodipodi-0.dtd"
   xmlns:inkscape="http://www.inkscape.org/namespaces/inkscape"
   version="1.1"
   id="svg3086"
   width="512"
   height="512"
   viewBox="0 0 512 512"
   sodipodi:docname="隱.svg"
   inkscape:version="0.92.4 (5da689c313, 2019-01-14)">
  <metadata
     id="metadata3092">
    <rdf:RDF>
      <cc:Work
         rdf:about="">
        <dc:format>image/svg+xml</dc:format>
        <dc:type
           rdf:resource="http://purl.org/dc/dcmitype/StillImage" />
        <dc:title></dc:title>
      </cc:Work>
    </rdf:RDF>
  </metadata>
  <defs
     id="defs3090" />
  <sodipodi:namedview
     pagecolor="#ffffff"
     bordercolor="#666666"
     borderopacity="1"
     objecttolerance="10"
     gridtolerance="10"
     guidetolerance="10"
     inkscape:pageopacity="0"
     inkscape:pageshadow="2"
     inkscape:window-width="1920"
     inkscape:window-height="1017"
     id="namedview3088"
     showgrid="false"
     inkscape:zoom="1.0017346"
     inkscape:cx="702.67751"
     inkscape:cy="324.69931"
     inkscape:window-x="-8"
     inkscape:window-y="-8"
     inkscape:window-maximized="1"
     inkscape:current-layer="svg3086" />
  <path
     style="fill:#000000;fill-opacity:1;stroke:#000000;stroke-width:1px;stroke-linecap:butt;stroke-linejoin:miter;stroke-opacity:1"
     d="m 52.908225,60.782685 -12.977489,5.98961 v 16.970563 l 11.979221,21.961902 14.974026,17.96883 45.920347,-23.958438 -4.99134,18.967098 -3.99308,14.97403 11.97922,13.97576 11.97922,15.97229 -6.98788,3.99307 -9.98268,3.99308 -14.974023,-4.99134 c 0,0 -8.984416,0 -8.984416,-3.99308 0,-3.99307 -0.998268,-13.97576 -0.998268,-13.97576 L 73.871862,137.64935 58.897836,131.65974 49.91342,129.6632 63.889178,144.63723 62.890909,167.5974 c 0,0 -6.987878,41.92728 -8.984415,47.91689 C 51.909957,221.5039 42.925542,281.4 42.925542,281.4 c 0,0 -0.998269,78.86321 -1.996537,83.85455 -0.998269,4.99134 -1.996537,38.93247 -1.996537,38.93247 l -5.98961,1.99653 -2.994806,12.97749 6.987879,14.97403 17.968831,24.95671 16.970563,11.97922 10.980952,0.99827 -7.986147,-18.9671 -13.975757,-34.9394 -4.991342,-41.92727 -0.998269,-73.87186 10.980953,-76.86667 9.982684,-36.93593 5.98961,-23.95844 4.991342,0.99827 10.980952,6.98788 c 0,0 19.965367,18.9671 23.958437,24.95671 3.99308,5.98961 10.98096,8.98441 10.98096,8.98441 l 12.97748,5.98961 c 0,0 2.99481,1.99654 3.99308,-4.99134 0.99827,-6.98788 0.99827,-27.95152 0.99827,-27.95152 l -4.99135,-14.97402 -15.97229,-20.96364 -10.98095,-4.99134 3.99307,-11.97922 23.95844,-18.9671 22.96018,-20.963637 8.98441,-6.987879 1.99654,-11.97922 -7.98615,-5.989611 -11.97922,-15.972294 -3.99307,-13.975761 c 0,0 -13.97576,-1.99653 -19.96537,8.984419 -5.98961,10.980952 -26.95325,19.965368 -26.95325,19.965368 L 74.87013,70.765369 60.894373,69.767101 Z"
     id="path3639"
     inkscape:connector-curvature="0" />
  <path
     style="fill:#000000;fill-opacity:1;stroke:#000000;stroke-width:1px;stroke-linecap:butt;stroke-linejoin:miter;stroke-opacity:1"
     d="m 202.64848,121.67706 v 19.96537 12.97748 4.99135 l 13.97576,13.97575 21.96191,9.98269 1.99653,-14.97403 v -14.97402 l 3.99308,-12.97749 -10.98096,8.98441 -11.97922,-5.98961 -5.98961,-11.97922 z"
     id="path3641"
     inkscape:connector-curvature="0" />
  <path
     style="fill:#000000;fill-opacity:1;stroke:#000000;stroke-width:1px;stroke-linecap:butt;stroke-linejoin:miter;stroke-opacity:1"
     d="m 307.46666,19.853678 c 0,0 20.96364,11.97922 3.99308,26.953249 -16.97056,14.974026 -52.90823,50.911689 -52.90823,50.911689 l -17.96883,14.974024 1.99654,5.98961 17.96883,-7.98614 39.93074,-31.944594 38.93246,-32.942857 8.98442,-5.98961 -2.99481,-9.982681 -8.98441,-8.98442 -14.97403,-8.98441 -5.98961,1.99653 z"
     id="path3643"
     inkscape:connector-curvature="0" />
  <path
     style="fill:#000000;fill-opacity:1;stroke:#000000;stroke-width:1px;stroke-linecap:butt;stroke-linejoin:miter;stroke-opacity:1"
     d="m 260.54805,110.69611 1.99654,11.97922 6.98788,17.96883 30.94632,14.97402 -52.90823,37.9342 -54.90476,21.96191 -16.97056,2.9948 c 0,0 -21.96191,9.98269 -0.99827,23.95845 20.96363,13.97575 22.96017,22.96017 27.95151,21.9619 4.99135,-0.99827 45.92035,-22.96017 45.92035,-22.96017 l 96.83203,-36.93594 c 0,0 13.97576,-8.98441 6.98788,16.97057 -6.98788,25.95498 -13.97575,54.90476 -13.97575,54.90476 0,0 -137.76104,48.91515 -141.75412,48.91515 -3.99307,0 -26.95324,0.99827 -26.95324,0.99827 l 17.96883,13.97576 -10.98096,13.97576 c 0,0 -9.98268,15.97229 -9.98268,20.96363 0,4.99134 -6.98788,22.96018 -6.98788,22.96018 l 6.98788,16.97056 13.97576,5.98961 10.98095,-6.98788 v -14.97403 c 0,0 0,-12.97749 0,-17.96883 0,-4.99134 -2.9948,-21.9619 -2.9948,-21.9619 l 4.99134,-19.96537 100.82511,-35.93766 69.87878,-15.9723 2.99481,-37.9342 22.96017,-42.92554 14.97403,-18.9671 -10.98095,-22.96017 c 0,0 -18.9671,-13.97576 -24.95671,-0.99827 -5.98961,12.97749 -9.98269,24.95671 -9.98269,24.95671 l -157.72641,46.91862 c 0,0 -33.94112,-7.98615 1.99654,-18.9671 35.93766,-10.98096 100.82511,-45.92035 100.82511,-45.92035 l 30.94632,-31.94459 27.95152,-34.93939 4.99134,-20.96364 c 0,0 -13.97576,-7.986148 -17.96883,-7.986148 -3.99308,0 -27.95152,1.996537 -27.95152,1.996537 l -10.98095,15.972295 -19.96537,23.958446 -22.96017,1.99653 z"
     id="path3645"
     inkscape:connector-curvature="0" />
  <path
     style="fill:#000000;fill-opacity:1;stroke:#000000;stroke-width:1px;stroke-linecap:butt;stroke-linejoin:miter;stroke-opacity:1"
     d="m 409.29004,295.37576 20.96364,14.97403 24.95671,19.96536 22.96017,23.95845 c 0,0 27.95152,19.96536 25.95498,-14.97403 -1.99654,-34.93939 -94.8355,-43.92381 -94.8355,-43.92381 z"
     id="path3647"
     inkscape:connector-curvature="0" />
  <path
     style="fill:#000000;fill-opacity:1;stroke:#000000;stroke-width:1px;stroke-linecap:butt;stroke-linejoin:miter;stroke-opacity:1"
     d="m 291.49437,316.3394 16.97056,27.95151 c 0,0 3.99308,4.99134 15.9723,10.98095 11.97922,5.98961 32.94285,16.97057 32.94285,16.97057 0,0 5.98962,-1.99654 3.99308,-13.97576 -1.99654,-11.97922 -8.98442,-14.97403 -8.98442,-14.97403 l 10.98096,-21.9619 -24.95671,8.98441 z"
     id="path3649"
     inkscape:connector-curvature="0" />
  <path
     style="fill:#000000;fill-opacity:1;stroke:#000000;stroke-width:1px;stroke-linecap:butt;stroke-linejoin:miter;stroke-opacity:1"
     d="m 223.61212,365.25455 10.98095,22.96017 27.95152,24.95671 43.92381,16.97056 64.88744,9.98269 52.90823,-2.99481 26.95324,-7.98614 c 0,0 24.95671,-12.97749 -0.99826,-21.96191 -25.95498,-8.98441 -21.96191,-9.98268 -21.96191,-9.98268 0,0 -38.93247,-72.8736 -38.93247,-66.88399 0,5.98961 11.97922,81.85801 11.97922,81.85801 l -34.93939,0.99827 -37.9342,0.99827 -49.91342,-9.98268 -32.94286,-19.96537 z"
     id="path3651"
     inkscape:connector-curvature="0" />
  <path
     style="fill:#000000;fill-opacity:1;stroke:#000000;stroke-width:1px;stroke-linecap:butt;stroke-linejoin:miter;stroke-opacity:1"
     d="m 190.66926,280.40173 34.9394,-2.9948 70.87705,-25.95498 42.92554,-15.97229 c 0,0 0,8.98441 -5.98961,11.97922 -5.98961,2.9948 -64.88744,28.94978 -68.88052,30.94632 -3.99307,1.99653 -37.9342,18.9671 -37.9342,18.9671 l -11.97922,8.98441 -18.9671,-15.97229 z"
     id="path3653"
     inkscape:connector-curvature="0" />
</svg>
