<?xml version="1.0" encoding="UTF-8" standalone="no"?>
<!-- Created with Inkscape (http://www.inkscape.org/) -->

<svg
   xmlns:dc="http://purl.org/dc/elements/1.1/"
   xmlns:cc="http://creativecommons.org/ns#"
   xmlns:rdf="http://www.w3.org/1999/02/22-rdf-syntax-ns#"
   xmlns:svg="http://www.w3.org/2000/svg"
   xmlns="http://www.w3.org/2000/svg"
   xmlns:sodipodi="http://sodipodi.sourceforge.net/DTD/sodipodi-0.dtd"
   xmlns:inkscape="http://www.inkscape.org/namespaces/inkscape"
   version="1.1"
   id="svg7902"
   width="540"
   height="512"
   viewBox="0 0 540 512"
   sodipodi:docname="æž.svg"
   inkscape:version="0.92.4 (5da689c313, 2019-01-14)">
  <metadata
     id="metadata7908">
    <rdf:RDF>
      <cc:Work
         rdf:about="">
        <dc:format>image/svg+xml</dc:format>
        <dc:type
           rdf:resource="http://purl.org/dc/dcmitype/StillImage" />
        <dc:title />
      </cc:Work>
    </rdf:RDF>
  </metadata>
  <defs
     id="defs7906" />
  <sodipodi:namedview
     pagecolor="#ffffff"
     bordercolor="#666666"
     borderopacity="1"
     objecttolerance="10"
     gridtolerance="10"
     guidetolerance="10"
     inkscape:pageopacity="0"
     inkscape:pageshadow="2"
     inkscape:window-width="1920"
     inkscape:window-height="1017"
     id="namedview7904"
     showgrid="false"
     inkscape:zoom="1.0017346"
     inkscape:cx="299.73526"
     inkscape:cy="301.86513"
     inkscape:window-x="-8"
     inkscape:window-y="-8"
     inkscape:window-maximized="1"
     inkscape:current-layer="svg7902" />
  <path
     style="fill:#000000;fill-opacity:1;stroke:#000000;stroke-width:1px;stroke-linecap:butt;stroke-linejoin:miter;stroke-opacity:1"
     d="m 113.80259,68.768833 c 0,0 20.96364,0 21.96191,25.954978 0.99827,25.954979 4.99134,64.887449 -2.99481,68.880519 -7.98614,3.99307 -87.847613,33.94113 -91.840686,33.94113 -3.993074,0 -12.977489,-11.97923 -11.979221,-5.98961 0.998269,5.98961 24.95671,41.92727 24.95671,41.92727 l 29.948052,-15.9723 30.946315,-16.97056 c 0,0 22.96017,-11.97922 14.97403,8.98442 -7.98615,20.96363 -48.91515,91.84069 -48.91515,91.84069 l -29.948052,39.93074 -11.979221,5.98961 -10.980952,-1.99654 c 0,0 -2.994805,44.92208 19.965368,23.95844 22.960173,-20.96363 63.889177,-77.86493 63.889177,-77.86493 l 17.96883,-29.94806 -4.99134,93.83723 -6.98788,58.89784 3.99307,25.95498 c 0,0 21.9619,24.95671 17.96883,-7.98615 -3.99307,-32.94286 2.99481,-168.70736 2.99481,-168.70736 l 0.99826,-27.95152 c 0,0 15.9723,0.99827 21.96191,9.98269 5.98961,8.98442 0.99827,18.9671 -0.99827,19.96537 -1.99654,0.99827 21.96191,10.98095 21.96191,10.98095 0,0 21.9619,3.99307 14.97402,-10.98095 -6.98788,-14.97403 -9.98268,-17.96883 -9.98268,-17.96883 l -23.95844,-10.98096 -27.95152,-7.98614 4.99134,-42.92555 48.91515,-18.96709 c 0,0 -8.98441,-19.96537 -25.95497,-11.97923 -16.97057,7.98615 -20.96364,1.99654 -20.96364,1.99654 l 21.9619,-57.899565 2.99481,-14.974026 c 0,0 4.99134,-3.993074 -13.97576,-11.979221 -18.9671,-7.986147 -24.95671,-7.986147 -24.95671,-7.986147 z"
     id="path7912"
     inkscape:connector-curvature="0" />
  <path
     style="fill:#000000;fill-opacity:1;stroke:#000000;stroke-width:1px;stroke-linecap:butt;stroke-linejoin:miter;stroke-opacity:1"
     d="m 286.50303,37.822509 15.97229,16.970566 23.95844,5.989611 -11.97922,68.880514 -67.88225,16.97057 -34.93939,-12.97749 26.95324,27.95151 9.98269,23.95844 56.9013,-17.96883 -26.95325,46.91862 c 0,0 -5.98961,13.97576 -4.99134,20.96363 0.99826,6.98788 18.9671,4.99135 18.9671,4.99135 l 11.97922,-29.94806 17.96883,-54.90476 33.94112,-13.97575 25.95498,-6.98788 c 0,0 42.92554,-10.98096 2.99481,-24.95671 -39.93074,-13.975761 -37.9342,23.95844 -37.9342,23.95844 l 5.98961,-20.96364 -9.98269,3.99308 16.97057,-48.915156 c 0,0 19.96537,-12.977489 0.99827,-18.967099 -18.9671,-5.989606 -43.92381,-14.974026 -43.92381,-14.974026 h -21.96191 z"
     id="path7914"
     inkscape:connector-curvature="0" />
  <path
     style="fill:#000000;fill-opacity:1;stroke:#000000;stroke-width:1px;stroke-linecap:butt;stroke-linejoin:miter;stroke-opacity:1"
     d="m 392.31948,61.780954 c 0,0 11.97922,0 16.97056,1.996537 4.99134,1.996537 32.94286,20.963636 36.93593,25.954978 3.99307,4.991342 21.9619,40.929001 0,24.956711 C 424.26406,98.716885 413.28311,79.749785 413.28311,79.749785 Z"
     id="path7916"
     inkscape:connector-curvature="0" />
  <path
     style="fill:#000000;fill-opacity:1;stroke:#000000;stroke-width:1px;stroke-linecap:butt;stroke-linejoin:miter;stroke-opacity:1"
     d="m 304.47186,210.52294 25.95498,10.98096 19.96536,3.99307 -17.96883,45.92035 -20.96363,34.93939 -10.98096,4.99134 -100.8251,-111.80606 -0.99827,35.93766 c 0,0 0,10.98096 7.98614,10.98096 7.98615,0 21.96191,0.99827 21.96191,0.99827 l 63.88918,81.85801 c 0,0 -72.8736,56.90129 -76.86667,58.89783 -3.99307,1.99654 -17.96883,-13.97576 -17.96883,-21.9619 0,-7.98615 -5.98961,36.93593 -5.98961,36.93593 l 8.98441,10.98095 66.88399,-39.93074 32.94285,-33.94112 46.91862,41.92727 80.85974,43.92381 24.95671,11.97922 29.94805,-18.9671 40.929,-7.98615 c 0,0 11.97923,-12.97749 -27.95151,-14.97402 -39.93074,-1.99654 -72.87359,-18.9671 -72.87359,-18.9671 l -83.85455,-38.93247 -21.9619,-16.97056 49.91342,-68.88052 11.97922,-13.97576 c 0,0 -1.99654,-24.95671 -28.94979,-33.94113 -26.95324,-8.98441 -45.92034,5.98961 -45.92034,5.98961 z"
     id="path7918"
     inkscape:connector-curvature="0" />
</svg>
