<?xml version="1.0" encoding="UTF-8" standalone="no"?>
<!-- Created with Inkscape (http://www.inkscape.org/) -->

<svg
   xmlns:dc="http://purl.org/dc/elements/1.1/"
   xmlns:cc="http://creativecommons.org/ns#"
   xmlns:rdf="http://www.w3.org/1999/02/22-rdf-syntax-ns#"
   xmlns:svg="http://www.w3.org/2000/svg"
   xmlns="http://www.w3.org/2000/svg"
   xmlns:sodipodi="http://sodipodi.sourceforge.net/DTD/sodipodi-0.dtd"
   xmlns:inkscape="http://www.inkscape.org/namespaces/inkscape"
   version="1.1"
   id="svg6778"
   width="512"
   height="512"
   viewBox="0 0 512 512"
   sodipodi:docname="次svg.svg"
   inkscape:version="0.92.4 (5da689c313, 2019-01-14)">
  <metadata
     id="metadata6784">
    <rdf:RDF>
      <cc:Work
         rdf:about="">
        <dc:format>image/svg+xml</dc:format>
        <dc:type
           rdf:resource="http://purl.org/dc/dcmitype/StillImage" />
        <dc:title></dc:title>
      </cc:Work>
    </rdf:RDF>
  </metadata>
  <defs
     id="defs6782" />
  <sodipodi:namedview
     pagecolor="#ffffff"
     bordercolor="#666666"
     borderopacity="1"
     objecttolerance="10"
     gridtolerance="10"
     guidetolerance="10"
     inkscape:pageopacity="0"
     inkscape:pageshadow="2"
     inkscape:window-width="1920"
     inkscape:window-height="1017"
     id="namedview6780"
     showgrid="false"
     inkscape:zoom="1.4166667"
     inkscape:cx="331.51478"
     inkscape:cy="321.00886"
     inkscape:window-x="-8"
     inkscape:window-y="-8"
     inkscape:window-maximized="1"
     inkscape:current-layer="svg6778" />
  <path
     style="fill:#000000;fill-opacity:1;stroke:#000000;stroke-width:1px;stroke-linecap:butt;stroke-linejoin:miter;stroke-opacity:1"
     d="m 70.588235,158.35294 c 0,0 -7.058823,8.47059 -1.411765,18.35294 5.647059,9.88235 19.764706,25.41176 19.764706,25.41176 l 35.294114,-21.17647 c 0,0 22.58824,-9.88235 5.64706,-16.94117 -16.94117,-7.05883 -40.941174,-1.41177 -40.941174,-1.41177 z"
     id="path6788"
     inkscape:connector-curvature="0" />
  <path
     style="fill:#000000;fill-opacity:1;stroke:#000000;stroke-width:1px;stroke-linecap:butt;stroke-linejoin:miter;stroke-opacity:1"
     d="m 56.470588,282.58824 c 0,0 -25.411765,-16.94118 -18.352941,4.23529 C 45.17647,308 64.941176,322.11765 64.941176,322.11765 l 19.764706,-8.47059 c 0,0 4.235294,-8.47059 9.882349,-9.88235 5.647059,-1.41177 40.941179,-15.52942 40.941179,-15.52942 0,0 39.52941,-5.64705 2.82353,-19.7647 -36.70588,-14.11765 -86.117646,12.70588 -81.882352,14.11765 z"
     id="path6790"
     inkscape:connector-curvature="0" />
  <path
     style="fill:#000000;fill-opacity:1;stroke:#000000;stroke-width:1px;stroke-linecap:butt;stroke-linejoin:miter;stroke-opacity:1"
     d="m 182.11765,171.05882 -11.29412,12.70588 c 0,0 -7.05883,35.29412 16.94117,18.35294 24,-16.94117 76.2353,-70.58823 76.2353,-70.58823 0,0 21.17647,-24 9.88235,-42.352944 -11.29412,-18.352941 -26.82353,-33.88235 -42.35294,-36.70588 -15.52941,-2.82353 7.05882,28.235292 7.05882,28.235292 l 5.64706,8.470588 c 0,0 2.82353,29.647064 -15.52941,52.235294 C 210.35294,164 199.05882,172.47058 199.05882,172.47058 Z"
     id="path6792"
     inkscape:connector-curvature="0" />
  <path
     style="fill:#000000;fill-opacity:1;stroke:#000000;stroke-width:1px;stroke-linecap:butt;stroke-linejoin:miter;stroke-opacity:1"
     d="m 300.70588,97.647055 31.05882,22.588235 39.52942,4.23529 42.35294,-8.47058 16.94117,15.52941 4.2353,24 -25.41177,15.52941 -81.88235,42.35294 -29.64706,5.64706 -2.82353,-11.29412 86.11765,-56.47059 -33.88235,-7.05882 c 0,0 -11.29412,11.29412 -28.2353,-9.88235 -16.94117,-21.17647 -18.35294,-29.64706 -18.35294,-29.64706 z"
     id="path6794"
     inkscape:connector-curvature="0" />
  <path
     style="fill:#000000;fill-opacity:1;stroke:#000000;stroke-width:1px;stroke-linecap:butt;stroke-linejoin:miter;stroke-opacity:1"
     d="m 283.7647,291.05882 120.00001,77.64706 c 0,0 41.64705,30.35294 44.47058,45.17647 2.82353,14.82353 4.94118,39.52941 -15.52941,24.70589 -20.47059,-14.82353 -52.94117,-52.94118 -52.94117,-52.94118 l -12,-19.76471 -47.29412,-35.29412 -34.58824,-28.23529 z"
     id="path6796"
     inkscape:connector-curvature="0" />
  <path
     style="fill:#000000;fill-opacity:1;stroke:#000000;stroke-width:1px;stroke-linecap:butt;stroke-linejoin:miter;stroke-opacity:1"
     d="m 256.94118,190.82353 c 0,0 2.82352,-8.47059 -7.76471,-7.76471 -10.58824,0.70588 -20.47059,-4.23529 -7.76471,-9.17647 12.70589,-4.94118 22.58824,0.70588 22.58824,0.70588 0,0 27.52941,12 18.35294,34.58824 -9.17647,22.58823 -29.64706,78.35294 -29.64706,78.35294 l -32.47059,61.41177 -50.11764,49.41176 -50.82353,21.88235 13.41176,-39.52941 2.82353,13.41177 c 0,0 1.41177,8.47059 14.11765,-0.70589 12.70588,-9.17647 12.70588,-9.17647 12.70588,-9.17647 l 26.82353,-23.29411 28.23529,-38.82353 28.2353,-62.82353 10.58823,-51.52942 z"
     id="path6798"
     inkscape:connector-curvature="0" />
</svg>
