<?xml version="1.0" encoding="UTF-8" standalone="no"?>
<!-- Created with Inkscape (http://www.inkscape.org/) -->

<svg
   xmlns:dc="http://purl.org/dc/elements/1.1/"
   xmlns:cc="http://creativecommons.org/ns#"
   xmlns:rdf="http://www.w3.org/1999/02/22-rdf-syntax-ns#"
   xmlns:svg="http://www.w3.org/2000/svg"
   xmlns="http://www.w3.org/2000/svg"
   xmlns:sodipodi="http://sodipodi.sourceforge.net/DTD/sodipodi-0.dtd"
   xmlns:inkscape="http://www.inkscape.org/namespaces/inkscape"
   version="1.1"
   id="svg10"
   width="660"
   height="512"
   viewBox="0 0 660 512"
   sodipodi:docname="連.svg"
   inkscape:version="0.92.4 (5da689c313, 2019-01-14)">
  <metadata
     id="metadata16">
    <rdf:RDF>
      <cc:Work
         rdf:about="">
        <dc:format>image/svg+xml</dc:format>
        <dc:type
           rdf:resource="http://purl.org/dc/dcmitype/StillImage" />
        <dc:title></dc:title>
      </cc:Work>
    </rdf:RDF>
  </metadata>
  <defs
     id="defs14" />
  <sodipodi:namedview
     pagecolor="#ffffff"
     bordercolor="#666666"
     borderopacity="1"
     objecttolerance="10"
     gridtolerance="10"
     guidetolerance="10"
     inkscape:pageopacity="0"
     inkscape:pageshadow="2"
     inkscape:window-width="1920"
     inkscape:window-height="1017"
     id="namedview12"
     showgrid="false"
     inkscape:zoom="0.5008673"
     inkscape:cx="-437.5782"
     inkscape:cy="403.59804"
     inkscape:window-x="-8"
     inkscape:window-y="-8"
     inkscape:window-maximized="1"
     inkscape:current-layer="svg10" />
  <path
     style="fill:#000000;fill-opacity:1;stroke:#000000;stroke-width:1px;stroke-linecap:butt;stroke-linejoin:miter;stroke-opacity:1"
     d="m 95.833765,140.64416 29.948045,-5.98961 c 0,0 0,-5.98961 7.98615,-7.98615 7.98615,-1.99654 19.96537,-7.98615 19.96537,-7.98615 l 25.95498,23.95844 c 0,0 5.98961,9.98269 -3.99308,13.97576 -9.98268,3.99308 -31.94459,9.98269 -31.94459,9.98269 l -15.97229,9.98268 z"
     id="path20"
     inkscape:connector-curvature="0" />
  <path
     style="fill:#000000;fill-opacity:1;stroke:#000000;stroke-width:1px;stroke-linecap:butt;stroke-linejoin:miter;stroke-opacity:1"
     d="m 71.875325,260.43636 c 21.9619,5.98962 19.96537,5.98962 19.96537,5.98962 l 25.954975,-9.98269 9.98268,-9.98268 c 0,0 47.91688,31.94459 39.93074,45.92034 -7.98615,13.97576 -11.97922,33.94113 -11.97922,33.94113 0,0 9.98268,33.94112 29.94805,45.92035 19.96536,11.97922 27.95151,21.9619 27.95151,21.9619 l -27.95151,13.97576 51.90995,11.97922 57.89957,13.97576 39.93074,3.99307 -11.97922,-35.93766 v -17.96883 l 13.97575,-23.95845 c 0,0 0,-29.94805 -17.96883,-19.96536 -17.96883,9.98268 -43.92381,21.9619 -43.92381,21.9619 l -7.98614,3.99307 -19.96537,-27.95151 89.84415,-27.95152 1.99654,-45.92034 -33.94113,13.97576 -9.98268,21.9619 -13.97576,-5.98961 -11.97922,-21.9619 17.96883,-7.98615 -7.98614,-35.93766 -29.94806,-39.93074 v -51.90996 l 45.92035,71.87533 41.92727,-27.95152 c 0,0 5.98961,-19.96536 -1.99653,-19.96536 -7.98615,0 -27.95152,5.98961 -27.95152,5.98961 l -19.96537,-11.97922 41.92728,-11.97923 3.99307,-39.93073 c 0,0 -5.98961,1.99654 -17.96883,7.98615 -11.97922,5.98961 -33.94113,-29.948057 -33.94113,-29.948057 l 15.9723,9.982684 31.94459,-1.996537 3.99307,-31.944588 -17.96883,-27.951512 15.97229,-3.99308 29.94805,23.958444 -7.98614,29.948052 41.92727,-11.97922 11.97922,1.996536 c 0,0 7.98615,1.996537 -1.99654,5.989611 -9.98268,3.993073 -55.90303,19.965368 -55.90303,19.965368 v 43.923809 l 63.88918,-17.96883 c 0,0 39.93074,-3.99307 21.96191,31.94459 -17.96883,35.93766 -35.93767,71.87532 -35.93767,71.87532 l 5.98961,9.98269 9.98269,7.98614 -17.96883,5.98961 c 0,0 1.99653,13.97576 -7.98615,17.96884 -9.98268,3.99307 -5.98961,19.96536 -11.97922,3.99307 -5.98961,-15.9723 -35.93766,-11.97922 -35.93766,-11.97922 l 3.99307,-25.95498 35.93766,-3.99307 c 0,0 37.9342,-93.83723 27.95152,-91.8407 -9.98269,1.99654 -63.88918,13.97576 -63.88918,13.97576 l -1.99654,25.95498 h 23.95845 l 3.99307,9.98268 -21.96191,9.98269 -13.97575,13.97576 -41.92728,-1.99654 13.97576,49.91342 33.94113,-15.9723 -3.99308,-33.94112 5.98961,37.9342 3.99308,55.90303 57.89956,-13.97576 41.92728,5.98961 c 0,0 33.94112,23.95844 -13.97576,25.95498 -47.91688,1.99654 -85.85108,7.98615 -85.85108,7.98615 l -3.99308,107.81298 c 0,0 155.72987,-9.98268 187.67446,-9.98268 31.94459,0 105.81645,-15.9723 105.81645,-15.9723 L 467.18961,480.05541 301.47705,474.0658 215.62597,430.14199 c 0,0 -39.93074,-11.97922 -57.89957,1.99654 -17.96883,13.97576 -39.93073,-7.98615 -39.93073,-7.98615 l 5.98961,-23.95844 15.97229,11.97922 37.9342,-3.99307 c 0,0 27.95151,-19.96537 9.98268,-29.94805 -17.96883,-9.98269 -35.93766,-37.9342 -35.93766,-37.9342 l -9.98268,-29.94806 -25.95498,-1.99653 -21.961905,-21.96191 z"
     id="path22"
     inkscape:connector-curvature="0" />
</svg>
