<?xml version="1.0" standalone="no"?>
<!DOCTYPE svg PUBLIC "-//W3C//DTD SVG 1.1//EN" "http://www.w3.org/Graphics/SVG/1.1/DTD/svg11.dtd" >
<svg xmlns="http://www.w3.org/2000/svg" xmlns:xlink="http://www.w3.org/1999/xlink" version="1.1" viewBox="0 0 256 256">
  <g transform="matrix(1 0 0 -1 0 204)">
   <path fill="currentColor"
d="M198 188q8 -8 11 -12q3 -3 2 -4q-1 -2 -5 -2q-7 -1 -11 -13q-13 -28 -21 -35q37 -16 51 -38q3 -8 -3 -7t-13 3q-7 1 -12 3q-11 0 -33 9q-4 2 -5 3q0 -13 -1 -36q0 -50 2 -72q7 -5 12 -16q-1 -5 -5 -4q-4 2 -8 6l-1 1q-3 6 -9 11q-4 6 7 15q0 31 -1 47v35q0 34 -1 75
q-1 13 -5 15t1 2t10 -3q3 -2 2 -4q-3 -6 -2 -14q0 -18 -1 -30v-25q20 -10 42 -8q8 -1 9 1t-5 8q-11 8 -34 20q-3 0 -3 1t2 3q12 13 23 50q1 2 0 4q-2 1 -4 1q-11 -3 -27 -5h-1q-5 0 0 2q18 5 26 10q4 5 11 3zM108 109h4q3 0 13 -6q3 -2 0 -4q-2 -2 -3 -2q-5 0 -7 -3
q-4 -6 -14 -14q3 0 3 -6q0 -13 1 -14q4 4 14 13l14 14q4 4 2 -1q-11 -14 -30 -33q-1 -38 -5 -51q-3 -4 -7 -9q-2 -2 -3 -1q-4 3 -11 8q-5 2 -8 5t1 2q13 -7 17 -7q5 0 6 2q5 9 5 46q-38 -30 -53 -29q-2 -1 0 1q18 6 53 36q-1 1 -1 3q-2 15 -4 15q-4 0 -6 -2q-7 -3 -5 0
q-1 4 3 5q4 -1 8 4q11 8 14 17q0 1 -3 0h-3q-22 -9 -48 -22q-5 -4 -7 -6q-3 -1 -2 3q-2 3 8 10q1 1 3 1q3 -1 9 2q4 2 13 6q19 9 27 11q0 2 1 4q0 1 1 2zM63 145q0 -1 3 -6q3 4 6 5q21 10 31 12h2q3 1 4 3h1q2 1 4 0l4 -3q4 -4 5 -3q2 -5 -3 -6q-4 2 -18 -17q7 1 17 1
q4 -3 0 -7q-4 -2 -14 -1q-11 0 -25 -6q3 -5 2 -7q-1 -4 -2 -4q-1 -1 -3 2q-4 5 -11 17q-5 8 -6 20q1 2 3 0zM73 141q-4 -1 -6 -4h1q3 -10 11 -19q10 4 12 8q1 1 3 4q1 1 3 4q7 8 10 17q1 3 -1 2q-3 -1 -10 -4q-15 -6 -23 -8zM132 187q0 2 3 2q6 -3 16 -4q5 -1 4 -4
q-1 -2 -2 -2h-10h-10t-13 -1q-51 -12 -72 -20q-8 -3 -16 -2q-3 0 -3 1t2 2q6 0 16 3q6 2 11 4q17 5 52 13q8 2 17 4q5 0 5 4zM83 204q-3 0 0 1q8 -1 19 -6q3 -4 7 -5h1q1 -1 1 -4t-1 -2h-9q-4 1 -9 0l-10 -2q-2 0 -2 1t2 2q7 4 7 8q0 3 -6 7z" />
  </g>

</svg>
