<?xml version="1.0" standalone="no"?>
<!DOCTYPE svg PUBLIC "-//W3C//DTD SVG 1.1//EN" "http://www.w3.org/Graphics/SVG/1.1/DTD/svg11.dtd" >
<svg xmlns="http://www.w3.org/2000/svg" xmlns:xlink="http://www.w3.org/1999/xlink" version="1.1" viewBox="0 0 256 256">
  <g transform="matrix(1 0 0 -1 0 204)">
   <path fill="currentColor"
d="M163 196q2 -3 5 -8l2 -2q1 -3 0 -6q-19 -52 -43 -79q-3 -2 0 2q16 23 34 72q5 14 0 21q0 1 2 0zM87 186q8 -3 13 -7q1 -2 -1 -3q-38 -31 -76 -53q-4 0 -1 2q39 25 61 48q7 7 2 12q-2 2 2 1zM133 162q1 0 0 -3t-4 -1q-5 0 -9 -1q-5 -2 -14 -4h-2h-2q0 1 2 3q3 2 3 3t-3 1
q-8 1 -16 1q-3 0 0 2q30 3 45 -1zM107 135q2 1 3 -1q0 -1 -3 -3q-6 -3 -20 -12q-2 -1 -3 -2q5 -3 8 -6q3 3 6 4l1 1q3 0 10 2q3 1 5 2q4 1 4 -1q0 -4 -1 -4q-16 -4 -27 -17q-4 -7 -5 -26q5 5 10 12q0 1 2 3t5 2q3 -1 2 -1l4 -1q1 -2 0 -3q-3 -1 -5 -8q-9 -20 -11 -25l-6 -15
q0 -7 2 -11q14 22 34 59q1 2 1 0q-23 -46 -38 -72q-6 -6 -13 -15q-2 -2 -2 -4q-2 -2 -4 3q-1 1 -1 2q-1 1 0 2q1 0 4 4q2 5 4 11q0 2 3 8q3 9 5 14v23q-16 -17 -14 -20q0 -3 -2 -2q-3 -1 -3 1q-5 7 -3 14q1 1 2 0q1 -4 2 -3q1 -1 5 3q7 7 13 14v14q1 8 1 11q-19 -13 -38 -28
q-4 -2 -5 -4q-2 -3 -3 -1q-5 3 -3 10q1 2 3 1q-1 -4 5 0q17 10 42 30q1 9 -1 16q-15 -8 -23 -7q-3 0 -2 0t2 1q16 5 31 17h-1q-2 3 1 4q6 3 17 4zM85 21q-2 4 -2 8q-2 -2 -6 -14q-2 -6 0 -6q0 1 2 3q5 6 6 9zM85 66q0 -2 -1 -7q0 -10 1 -14q5 11 12 33q1 2 -2 1
q-6 -8 -10 -13zM219 115q0 -1 1 -3q3 -4 5 -4q1 -1 1 -3t-2 -3h-1q-2 -1 -3 -5v-2q-15 -78 -32 -97q-3 -2 -3 -5q-1 0 -1 -1q-2 -3 -4 -3t-2 1q-7 6 -14 10q-5 0 -8 4q-2 2 2 1q7 -4 18 -5q2 0 1 0q5 -1 8 0q21 26 28 103q1 17 -10 23q-10 6 -34 -3q-3 -1 -7 -3
q-11 -5 -12 -4q-2 0 -1 0q0 1 1 2q17 9 35 13q19 5 34 -16zM172 87q1 0 0 -2q-2 -4 -3 -3q-9 -1 -16 1q-9 1 -17 1q-3 0 0 1q21 6 36 2zM173 53q2 -1 1 -3q0 -3 -6 -2q-11 -2 -31 1q-3 1 0 2q11 2 19 2h17z" />
  </g>

</svg>
