<?xml version="1.0" standalone="no"?>
<!DOCTYPE svg PUBLIC "-//W3C//DTD SVG 1.1//EN" "http://www.w3.org/Graphics/SVG/1.1/DTD/svg11.dtd" >
<svg xmlns="http://www.w3.org/2000/svg" xmlns:xlink="http://www.w3.org/1999/xlink" version="1.1" viewBox="0 0 256 256">
  <g transform="matrix(1 0 0 -1 0 204)">
   <path fill="currentColor"
d="M135 203q10 -2 14 -7q1 -2 -1 -4q-1 -3 -5 -2q-3 0 -12 -3q-26 -14 -51 -18q-2 -1 0 1q24 10 48 24q5 3 5 7q-1 1 2 2zM113 174q0 2 2 1q4 -3 7 -7h1q2 -1 1 -9q4 0 16 4v1q2 3 6 3q9 0 17 -1q2 0 1 -3q1 -4 -5 -4q-21 -2 -37 -7q-1 -3 -1 -9q-1 -6 -1 -8q12 2 42 9h1
q3 2 6 0q10 -5 16 -9q1 -1 1 -4q1 -3 -7 -2q-4 0 -11 -6q6 0 18 2q10 1 21 3l2 1q2 0 3 1q2 0 4 -1q5 -3 6 -3t1 -2q-1 -2 -4 -1q-6 0 -22 -4q-1 -1 -3 -1q-9 -3 -15 -3q-5 0 -1 2q5 1 9 2q7 2 10 3q2 2 -1 1q-2 -1 -6 -1q-16 -2 -28 -3q-10 -9 -27 -17h3q3 1 6 1h5q2 1 4 1
q0 -1 1 -1q2 -1 2 -2q1 -3 -5 -3q-23 -3 -32 -6q-2 -9 3 -16q19 -29 48 -47q6 -7 27 -5q14 2 40 -7q4 -2 -1 -2h-17h-20q-16 -2 -29 9q-22 13 -51 45q-4 -52 0 -71q1 -8 3 -19q0 -3 -3 -4q-2 -1 -3 1q-7 7 -7 14q-2 7 -3 9q-2 1 -1 4q0 2 2 1q1 -3 5 -5q1 -1 2 1q0 14 -1 41
v32q-45 -50 -66 -56q-4 -1 -1 1q33 22 64 60q-2 3 -7 10q-27 -7 -28 2q-2 1 2 1q4 -6 36 5v15q-26 -5 -57 -10q-20 -6 -30 -1q-4 0 1 1q5 -1 13 1q7 1 23 5q7 1 15 2q27 5 35 6v15q-10 -2 -18 -4q-11 -2 -16 0q-4 0 0 2q12 0 34 6v16q-30 -6 -37 -2q-3 1 0 2q24 1 38 6
q0 11 -1 18zM150 117q-25 -6 -31 -6q0 -2 -1 -6v-7q13 5 32 19zM120 131q0 -2 -1 -7v-8q8 1 36 6q6 5 12 13q2 3 1 5q0 1 -4 1q-16 -4 -26 -6t-18 -4z" />
  </g>

</svg>
