<?xml version="1.0" encoding="UTF-8" standalone="no"?>
<!-- Created with Inkscape (http://www.inkscape.org/) -->

<svg
   xmlns:dc="http://purl.org/dc/elements/1.1/"
   xmlns:cc="http://creativecommons.org/ns#"
   xmlns:rdf="http://www.w3.org/1999/02/22-rdf-syntax-ns#"
   xmlns:svg="http://www.w3.org/2000/svg"
   xmlns="http://www.w3.org/2000/svg"
   xmlns:sodipodi="http://sodipodi.sourceforge.net/DTD/sodipodi-0.dtd"
   xmlns:inkscape="http://www.inkscape.org/namespaces/inkscape"
   version="1.1"
   id="svg5662"
   width="580"
   height="512"
   viewBox="0 0 580 512"
   sodipodi:docname="å‹.svg"
   inkscape:version="0.92.4 (5da689c313, 2019-01-14)">
  <metadata
     id="metadata5668">
    <rdf:RDF>
      <cc:Work
         rdf:about="">
        <dc:format>image/svg+xml</dc:format>
        <dc:type
           rdf:resource="http://purl.org/dc/dcmitype/StillImage" />
        <dc:title></dc:title>
      </cc:Work>
    </rdf:RDF>
  </metadata>
  <defs
     id="defs5666" />
  <sodipodi:namedview
     pagecolor="#ffffff"
     bordercolor="#666666"
     borderopacity="1"
     objecttolerance="10"
     gridtolerance="10"
     guidetolerance="10"
     inkscape:pageopacity="0"
     inkscape:pageshadow="2"
     inkscape:window-width="1920"
     inkscape:window-height="1017"
     id="namedview5664"
     showgrid="false"
     inkscape:zoom="0.70833333"
     inkscape:cx="247.28851"
     inkscape:cy="253.80922"
     inkscape:window-x="-8"
     inkscape:window-y="-8"
     inkscape:window-maximized="1"
     inkscape:current-layer="svg5662" />
  <path
     style="fill:#000000;fill-opacity:1;stroke:#000000;stroke-width:1px;stroke-linecap:butt;stroke-linejoin:miter;stroke-opacity:1"
     d="M 238.58824,9.4117653 312,102.58824 l -11.29412,35.29411 94.58824,-21.17647 8.47059,-11.29411 59.29411,21.17647 c 0,0 42.35295,21.17647 0,32.47058 -42.35294,11.29412 5.64706,-4.23529 5.64706,-4.23529 l -55.05882,-8.47059 -124.23529,9.88235 -36.70589,73.41177 -21.17647,43.76471 60.70588,42.35294 18.35295,-56.47059 h -39.52942 l -16.94117,-29.64706 55.05882,-8.47059 14.11765,-36.70588 v 11.29412 l 8.47059,-2.82353 26.82353,33.88235 -16.94118,16.94118 -35.29412,83.29412 53.64706,38.11765 60.70588,26.82353 52.2353,19.7647 80.47059,15.52941 -7.05883,12.70589 -64.94117,4.23529 c 0,0 -28.2353,-1.41177 -52.2353,7.05882 -24,8.47059 -53.64706,-25.41176 -53.64706,-25.41176 l -55.05882,-39.52941 -29.64706,-33.88236 c 0,0 -46.58824,96 -108.70588,117.17647 C 120,490.82353 127.05882,468.2353 127.05882,468.2353 l 60.70589,-19.76471 59.29411,-49.41176 33.88236,-50.82353 -36.70589,-31.05882 c 0,0 -11.29411,-39.52942 -46.58823,14.11764 C 162.35294,384.94118 97.411769,458.35295 97.411769,458.35295 l -32.470593,14.11764 -12.705882,-7.05882 53.647056,-38.11765 67.76471,-93.17647 21.17647,-28.23529 -15.52941,-49.41177 c 0,0 -19.76471,-40.94118 16.94117,-12.70588 36.70589,28.2353 24,39.52941 24,39.52941 l -1.41176,-24 19.76471,-42.35294 21.17647,-53.64706 -94.58824,24 -48,24 c 0,0 -26.823531,29.64706 -46.588235,21.17647 -19.764706,-8.47058 -45.176471,-35.29412 -45.176471,-35.29412 l -14.117647,-18.35294 52.235294,11.29412 97.411769,-26.82353 107.29411,-19.76471 8.47059,-36.70588 -33.88235,-59.294118 z"
     id="path6219"
     inkscape:connector-curvature="0" />
</svg>
