<?xml version="1.0" encoding="UTF-8" standalone="no"?>
<!-- Created with Inkscape (http://www.inkscape.org/) -->

<svg
   xmlns:dc="http://purl.org/dc/elements/1.1/"
   xmlns:cc="http://creativecommons.org/ns#"
   xmlns:rdf="http://www.w3.org/1999/02/22-rdf-syntax-ns#"
   xmlns:svg="http://www.w3.org/2000/svg"
   xmlns="http://www.w3.org/2000/svg"
   xmlns:sodipodi="http://sodipodi.sourceforge.net/DTD/sodipodi-0.dtd"
   xmlns:inkscape="http://www.inkscape.org/namespaces/inkscape"
   version="1.1"
   id="svg1950"
   width="512"
   height="512"
   viewBox="0 0 512 512"
   sodipodi:docname="箋..svg"
   inkscape:version="0.92.4 (5da689c313, 2019-01-14)">
  <metadata
     id="metadata1956">
    <rdf:RDF>
      <cc:Work
         rdf:about="">
        <dc:format>image/svg+xml</dc:format>
        <dc:type
           rdf:resource="http://purl.org/dc/dcmitype/StillImage" />
        <dc:title></dc:title>
      </cc:Work>
    </rdf:RDF>
  </metadata>
  <defs
     id="defs1954" />
  <sodipodi:namedview
     pagecolor="#ffffff"
     bordercolor="#666666"
     borderopacity="1"
     objecttolerance="10"
     gridtolerance="10"
     guidetolerance="10"
     inkscape:pageopacity="0"
     inkscape:pageshadow="2"
     inkscape:window-width="1920"
     inkscape:window-height="1017"
     id="namedview1952"
     showgrid="false"
     inkscape:zoom="0.70833333"
     inkscape:cx="-119.18248"
     inkscape:cy="412.86723"
     inkscape:window-x="-8"
     inkscape:window-y="-8"
     inkscape:window-maximized="1"
     inkscape:current-layer="svg1950" />
  <path
     style="fill:#000000;fill-opacity:1;stroke:#000000;stroke-width:1px;stroke-linecap:butt;stroke-linejoin:miter;stroke-opacity:1"
     d="m 100.2353,27.764706 c 0,0 28.23529,5.647059 16.94118,24 -11.29412,18.352941 -43.764716,66.352944 -43.764716,66.352944 l -7.058823,1.41176 -8.470588,-12.70588 -9.882353,24 4.235294,9.88235 16.941176,-5.64706 46.58824,-49.411761 24,-31.058824 L 138.35295,32 128.47059,23.529409 c 0,0 -11.29411,-5.64706 -16.94117,-5.64706 -5.64706,0 -11.29412,9.882357 -11.29412,9.882357 z"
     id="path2503"
     inkscape:connector-curvature="0" />
  <path
     style="fill:#000000;fill-opacity:1;stroke:#000000;stroke-width:1px;stroke-linecap:butt;stroke-linejoin:miter;stroke-opacity:1"
     d="m 135.52942,78.588235 62.11764,-12.705882 9.88236,-5.647059 c 0,0 16.94117,-4.235294 16.94117,4.235294 0,8.470588 -19.7647,16.941177 -19.7647,16.941177 l -52.2353,8.470588 z"
     id="path2505"
     inkscape:connector-curvature="0" />
  <path
     style="fill:#000000;fill-opacity:1;stroke:#000000;stroke-width:1px;stroke-linecap:butt;stroke-linejoin:miter;stroke-opacity:1"
     d="m 144,102.58824 7.05883,22.58823 -7.05883,31.05882 5.64706,11.29412 9.88236,-4.23529 14.11764,-26.82353 4.2353,-11.29412 -4.2353,-14.11765 -21.17647,-21.176467 z"
     id="path2507"
     inkscape:connector-curvature="0" />
  <path
     style="fill:#000000;fill-opacity:1;stroke:#000000;stroke-width:1px;stroke-linecap:butt;stroke-linejoin:miter;stroke-opacity:1"
     d="m 74.823529,201.41177 c 2.82353,11.29411 8.470588,28.23529 8.470588,28.23529 l 16.941183,8.47059 9.88235,11.29412 2.82353,16.94117 L 96,331.29412 66.352941,386.35294 52.235294,368 42.352941,384.94118 48,421.64706 c 0,0 18.352941,12.70588 18.352941,-9.88235 0,-22.58824 2.823529,9.88235 2.823529,9.88235 l 39.52942,-73.41176 4.23529,-15.52942 c 0,0 5.64706,-22.58823 29.64706,4.2353 24,26.82353 4.23529,45.17647 4.23529,45.17647 l 8.47059,35.29412 c 0,0 12.70588,25.41176 15.52941,0 2.82353,-25.41177 42.35295,-31.05883 42.35295,-31.05883 l 40.94117,-5.64706 11.29412,-2.82353 -2.82353,-16.94117 -21.17647,4.23529 14.11765,-35.29412 5.64706,-9.88235 7.05882,-16.94118 -26.82353,-16.94117 -15.52941,21.17647 -46.58824,7.05882 -18.35294,-1.41176 12.70588,19.7647 18.35294,9.88236 32.47059,-12.70589 v 32.47059 l -53.64706,9.88236 -1.41176,-15.52942 -2.82353,-9.88235 -16.94118,-19.76471 -21.17647,-16.94117 h -7.05882 l 8.47059,-28.2353 2.82353,-24 v -18.35294 l -8.47059,-5.64706 -14.11765,-8.47058 -16.94118,-14.11765 z"
     id="path2509"
     inkscape:connector-curvature="0" />
  <path
     style="fill:#000000;fill-opacity:1;stroke:#000000;stroke-width:1px;stroke-linecap:butt;stroke-linejoin:miter;stroke-opacity:1"
     d="m 199.05883,249.41177 -16.94118,5.64705 -12.70588,1.41177 c 0,0 -7.05882,-4.23529 -7.05882,1.41176 0,5.64706 -1.41177,21.17647 4.23529,22.58824 5.64706,1.41176 11.29412,2.82353 16.94118,2.82353 5.64706,0 21.17647,-14.11765 21.17647,-14.11765 l 25.41176,-4.23529 16.94118,-15.52941 c 0,0 -7.05883,-5.64706 -12.70588,-5.64706 -5.64706,0 -26.82353,0 -26.82353,0 z"
     id="path2511"
     inkscape:connector-curvature="0" />
  <path
     style="fill:#000000;fill-opacity:1;stroke:#000000;stroke-width:1px;stroke-linecap:butt;stroke-linejoin:miter;stroke-opacity:1"
     d="M 207.52942,109.64706 220.2353,122.35294 241.41177,200 170.82353,214.11765 c 0,0 -15.52941,-14.11765 -16.94117,1.41176 -1.41177,15.52941 8.47059,18.35294 15.52941,18.35294 7.05882,0 29.64706,-11.29411 29.64706,-11.29411 l 45.17647,-12.70589 c 0,0 15.52941,36.70589 19.7647,50.82353 4.2353,14.11765 45.17648,79.05883 45.17648,79.05883 l -29.64706,55.05882 -25.41177,-14.11765 15.52941,42.35294 c 0,0 16.94118,1.41177 19.76471,-8.47058 2.82353,-9.88236 32.47059,-59.29412 32.47059,-59.29412 l 63.52941,70.58823 49.41176,39.52942 42.35295,25.41176 -4.2353,-79.05882 -21.17647,26.82353 -69.17647,-35.29412 -26.82353,-29.64706 -35.29412,-28.23529 35.29412,-101.64706 -15.52941,-28.2353 -21.17647,100.2353 -9.88235,5.64706 -56.47059,-117.17648 69.17647,-12.70588 7.05882,-2.82353 c 0,0 -19.7647,-19.7647 -25.41176,-18.35294 -5.64706,1.41177 -49.41177,21.17647 -49.41177,21.17647 l -8.47059,-32.47059 9.88236,-19.7647 -25.41177,-32.47059 -15.52941,-9.882354 z"
     id="path2513"
     inkscape:connector-curvature="0" />
  <path
     style="fill:#000000;fill-opacity:1;stroke:#000000;stroke-width:1px;stroke-linecap:butt;stroke-linejoin:miter;stroke-opacity:1"
     d="m 362.82353,144.94118 h 16.94118 l 11.29412,12.70588 4.23529,14.11765 -2.82353,9.88235 -12.70588,-9.88235 -11.29412,-18.35294 z"
     id="path2515"
     inkscape:connector-curvature="0" />
  <path
     style="fill:#000000;fill-opacity:1;stroke:#000000;stroke-width:1px;stroke-linecap:butt;stroke-linejoin:miter;stroke-opacity:1"
     d="m 296.47059,78.588235 c 8.47059,12.705883 8.47059,7.058824 8.47059,12.705883 0,5.647058 2.82353,-1.411765 1.41177,14.117652 -1.41177,15.52941 -4.2353,24 -4.2353,24 l -1.41176,15.52941 18.35294,-1.41177 7.05882,-26.82353 1.41177,-29.647057 -9.88236,-11.294117"
     id="path2517"
     inkscape:connector-curvature="0" />
  <path
     style="fill:none;stroke:#000000;stroke-width:1px;stroke-linecap:butt;stroke-linejoin:miter;stroke-opacity:1"
     d="M 296.47059,78.588235 Z"
     id="path2519"
     inkscape:connector-curvature="0" />
  <path
     style="fill:#000000;fill-opacity:1;stroke:#000000;stroke-width:1px;stroke-linecap:butt;stroke-linejoin:miter;stroke-opacity:1"
     d="m 255.52942,6.5882394 16.94117,22.5882306 -1.41176,15.529412 -8.47059,18.352941 -12.70588,5.647059 -4.2353,2.82353 12.70589,12.705882 21.17647,-15.529412 15.52941,-14.117647 39.52941,9.882353 16.94118,-2.823529 19.7647,-8.470589 h 32.47059 v -9.882352 l -24,-5.647059 -14.11765,4.235294 -2.82353,-8.470588 -25.41176,21.17647 -26.82353,-4.235294 -8.47059,-2.823529 -1.41176,-14.117647 -15.52941,-19.764706 -18.35295,-7.0588196 z"
     id="path2521"
     inkscape:connector-curvature="0" />
</svg>
