<?xml version="1.0" encoding="UTF-8" standalone="no"?>
<!-- Created with Inkscape (http://www.inkscape.org/) -->

<svg
   xmlns:dc="http://purl.org/dc/elements/1.1/"
   xmlns:cc="http://creativecommons.org/ns#"
   xmlns:rdf="http://www.w3.org/1999/02/22-rdf-syntax-ns#"
   xmlns:svg="http://www.w3.org/2000/svg"
   xmlns="http://www.w3.org/2000/svg"
   xmlns:sodipodi="http://sodipodi.sourceforge.net/DTD/sodipodi-0.dtd"
   xmlns:inkscape="http://www.inkscape.org/namespaces/inkscape"
   version="1.1"
   id="svg8463"
   width="580"
   height="512"
   viewBox="0 0 580 512"
   sodipodi:docname="è¦.svg"
   inkscape:version="0.92.4 (5da689c313, 2019-01-14)">
  <metadata
     id="metadata8469">
    <rdf:RDF>
      <cc:Work
         rdf:about="">
        <dc:format>image/svg+xml</dc:format>
        <dc:type
           rdf:resource="http://purl.org/dc/dcmitype/StillImage" />
        <dc:title />
      </cc:Work>
    </rdf:RDF>
  </metadata>
  <defs
     id="defs8467" />
  <sodipodi:namedview
     pagecolor="#ffffff"
     bordercolor="#666666"
     borderopacity="1"
     objecttolerance="10"
     gridtolerance="10"
     guidetolerance="10"
     inkscape:pageopacity="0"
     inkscape:pageshadow="2"
     inkscape:window-width="1920"
     inkscape:window-height="1017"
     id="namedview8465"
     showgrid="false"
     inkscape:zoom="1.0017346"
     inkscape:cx="-50.49096"
     inkscape:cy="374.52711"
     inkscape:window-x="-8"
     inkscape:window-y="-8"
     inkscape:window-maximized="1"
     inkscape:current-layer="svg8463" />
  <path
     style="fill:#000000;fill-opacity:1;stroke:#000000;stroke-width:1px;stroke-linecap:butt;stroke-linejoin:miter;stroke-opacity:1"
     d="m 148.74199,107.7013 3.99308,-18.967099 c 0,0 -12.97749,-20.963636 -20.96364,-5.989606 -7.98615,14.974021 -5.98961,-12.97749 -5.98961,-12.97749 l 8.98442,-13.97576 35.93766,15.97229 -6.98788,70.877055 20.96364,-1.99653 16.97056,8.98441 -13.97576,16.97057 -26.95324,15.97229 -1.99654,26.95325 13.97576,-2.99481 20.96363,10.98095 c 0,0 1.99654,11.97922 -2.9948,13.97576 -4.99134,1.99654 -34.9394,13.97576 -34.9394,13.97576 0,0 -8.98441,35.93766 -13.97575,46.91861 -4.99135,10.98095 -18.9671,42.92554 -22.96018,44.92208 -3.99307,1.99653 -46.918616,29.94805 -46.918616,29.94805 l -27.951515,8.98441 c 0,0 -22.960173,-1.99653 -17.968831,-3.99307 4.991342,-1.99654 20.963636,-9.98268 20.963636,-9.98268 l 48.915152,-29.94806 26.953254,-29.94805 15.97229,-31.94458 2.99481,-10.98095 -4.99135,-4.99135 -18.9671,14.97403 -17.968834,14.97403 -10.980949,6.98787 -15.972294,-10.98095 -14.974026,-16.97056 -1.996537,-18.9671 26.953247,1.99654 62.890913,-26.95325 5.98961,-19.96537 -17.96883,-5.98961 -13.97576,-5.98961 -14.97402,-16.97056 -5.989624,-11.97922 37.934204,-5.98961 12.97749,-5.98961 z"
     id="path8473"
     inkscape:connector-curvature="0" />
  <path
     style="fill:#000000;fill-opacity:1;stroke:#000000;stroke-width:1px;stroke-linecap:butt;stroke-linejoin:miter;stroke-opacity:1"
     d="m 173.6987,256.44329 38.93247,27.95152 24.95671,30.94631 19.96537,-8.98441 -3.99307,-157.72641 -9.98269,-24.95671 0.99827,-8.98441 17.96883,17.96883 c 0,0 18.9671,20.96364 18.9671,25.95498 0,4.99134 0,13.97576 0,13.97576 l 40.92901,-18.9671 c 0,0 28.94978,-3.99308 17.96883,16.97056 -10.98096,20.96364 -17.96883,36.93593 -35.93767,28.94978 -17.96883,-7.98614 -28.94978,-12.97749 -28.94978,-12.97749 0,0 0,30.94632 0,36.93593 0,5.98961 0.99827,18.9671 0.99827,18.9671 l 43.92381,-21.9619 c 0,0 18.9671,0 11.97922,14.97402 -6.98788,14.97403 -21.9619,26.95325 -32.94286,19.96537 -10.98095,-6.98788 -22.96017,-11.97922 -22.96017,-11.97922 l 1.99654,51.90995 52.90822,-16.97055 35.93766,-34.9394 8.98442,-133.76796 c 0,0 0,-13.97576 -11.97922,-10.980955 -11.97922,2.994805 -71.87533,30.946315 -71.87533,30.946315 0,0 -16.97056,-7.98614 -20.96363,-13.97575 -3.99308,-5.98961 -12.97749,-20.963639 -12.97749,-20.963639 h 36.93593 l 41.92727,-11.979216 17.96883,-8.98442 26.95325,4.99134 20.96364,24.956715 c 0,0 -8.98442,2.9948 -10.98096,18.9671 -1.99653,15.97229 -7.98614,221.61558 -7.98614,221.61558 0,0 -15.9723,33.94112 -19.96537,-4.99135 -3.99307,-38.93246 -2.99481,-46.91861 -2.99481,-46.91861 l 0.99827,-11.97922 9.98269,-9.98268 v -13.97576 c 0,0 -13.97576,13.97576 -16.97057,19.96537 -2.9948,5.98961 -28.94978,28.94978 -28.94978,28.94978 0,0 -7.98615,10.98095 -3.99307,10.98095 3.99307,0 25.95497,14.97403 25.95497,14.97403 l -15.97229,42.92554 c 0,0 -9.98268,49.91342 30.94632,46.91861 40.929,-2.9948 135.7645,-7.98614 135.7645,-7.98614 0,0 4.99134,-4.99135 11.97922,-7.98615 6.98788,-2.99481 25.95498,-22.96018 25.95498,-22.96018 l 5.98961,-30.94632 c 0,0 0,-22.96017 0.99827,-15.97229 0.99827,6.98788 16.97056,51.90996 16.97056,51.90996 0,0 13.97576,28.94978 -11.97922,38.93246 -25.95498,9.98269 -34.93939,13.97576 -34.93939,13.97576 l -151.7368,6.98788 c 0,0 -22.96017,-2.9948 -35.93766,-25.95498 -12.97749,-22.96017 -7.98615,-56.9013 -7.98615,-56.9013 l 9.98269,-42.92554 -9.98269,-1.99653 -117.79567,123.78528 c 0,0 -42.92554,15.97229 -24.95671,-9.98269 17.96883,-25.95498 23.95844,-32.94285 23.95844,-32.94285 l 10.98096,-9.98269 4.99134,12.97749 103.81991,-97.8303 -64.88744,26.95324 c 0,0 -31.94459,14.97403 -44.92208,0 -12.97749,-14.97402 -34.9394,-61.89263 -34.9394,-61.89263 z"
     id="path8475"
     inkscape:connector-curvature="0" />
</svg>
